<?xml version="1.0" encoding="UTF-8" standalone="no"?><!DOCTYPE svg PUBLIC "-//W3C//DTD SVG 1.1//EN" "http://www.w3.org/Graphics/SVG/1.1/DTD/svg11.dtd"><svg width="100%" height="100%" viewBox="0 0 2500 150" version="1.1" xmlns="http://www.w3.org/2000/svg" xmlns:xlink="http://www.w3.org/1999/xlink" xml:space="preserve" xmlns:serif="http://www.serif.com/" style="fill-rule:evenodd;clip-rule:evenodd;stroke-linejoin:round;stroke-miterlimit:2;"><path d="M2500,77.011l0,72.989l-2500,0l0,-73c0.986,0.183 1.97,0.414 2.959,0.516c0.72,0.286 1.21,0.882 1.472,1.764c0.187,1.211 0.634,2.198 1.192,3.089c0.299,-0.254 0.623,-0.736 0.983,-1.519c0.843,-1.831 1.505,-0.411 2.004,0.673c0.145,0.18 0.164,0.426 0.213,0.654c1.097,-0.337 1.549,0.877 2.195,1.625c0.201,-0.17 0.405,-0.337 0.584,-0.548c0.018,-0.019 0.036,-0.042 0.053,-0.062c0.078,-0.295 0.161,-0.587 0.198,-0.887c0.142,-1.166 -0.746,-3.035 0.947,-3.096c1.059,-0.038 1.25,1.198 1.463,2.318c0.219,0.085 0.441,0.161 0.64,0.312c0.453,0.136 0.893,0.317 1.336,0.482c1.269,-0.457 0.505,-5.501 3.248,-2.627c0.582,0.944 -0.282,2.962 1.252,3.1c1.78,0.159 0.638,-2.488 1.687,-3.142c0.201,-0.278 0.4,-0.556 0.598,-0.834c3.245,1.502 0.274,4.202 0.757,6.236c0.057,0.092 0.037,0.164 0.068,0.249c0.043,0.012 0.085,0.032 0.128,0.043c0.807,1.588 1.374,3.399 2.396,4.787c-0.252,-0.749 -0.412,-1.503 0.246,-2.298c0.696,-0.283 1.391,-0.567 2.084,-0.849c3.357,1.295 1.583,5.239 0.911,6.163c0.013,-0.003 0.026,-0.007 0.039,-0.012c0.079,-0.049 0.159,-0.061 0.238,-0.107c1.106,-0.895 2.213,-1.789 3.318,-2.685c-0.88,-2.153 -1.504,-4.175 1.417,-4.387c1.498,1.258 0.308,4.168 0.971,5.938c0.577,0.01 1.157,0.027 1.732,0.031c0.321,0.005 0.644,0.025 0.964,0.054c0.316,0.053 0.63,0.127 0.942,0.217c1.614,0.608 3.169,-0.307 4.763,-0.239c1.088,-0.113 2.221,0.303 3.268,-0.345c2.199,-1.361 3.523,-0.742 4.332,1.045c0.073,-0.222 0.157,-0.422 0.286,-0.512c1.077,-0.74 1.185,1.191 1.573,2.142c0.937,-0.011 1.872,-0.023 2.809,-0.035c-0.022,0.332 -0.044,0.662 -0.064,0.992c-1.076,1.027 -0.963,2.34 -0.566,3.721c0.368,1.406 0.988,2.475 2.308,1.957c1.113,-0.438 1.698,-1.507 1.697,-3.033c-0,-1.372 -0.795,-3.519 0.84,-3.714c1.872,-0.225 1.4,2.176 1.589,3.675c-0.439,0.919 -0.511,1.691 -0.292,2.347c0.37,-0.161 0.739,-0.315 1.101,-0.506c1.359,-0.915 2.742,-0.329 4.112,-0.108c0.704,0.106 0.307,-0.335 1.015,-0.268c1.048,0.099 0.288,1.689 0.928,2.046c-1.726,-0.106 -0.849,0.328 -2.574,0.239c1.023,1.277 0.142,4.213 1.838,4.479c1.912,0.302 1.195,-2.423 1.799,-3.699c0.666,-1.408 1.398,-1.076 1.69,0.364c0.245,1.221 0.386,2.478 0.533,3.731c0.012,-0.012 0.02,-0.03 0.032,-0.042c0.147,-0.151 0.289,-0.315 0.43,-0.479c-0.162,-1.533 -0.259,-3.038 1.73,-3.521l-0.034,-0.066c0.521,-2.378 1.044,-4.755 1.566,-7.132c5.165,0.28 0.473,4.288 1.468,6.144c0.938,-0.258 1.876,-0.518 2.813,-0.776c1.507,-1.652 2.987,-1.626 4.446,-0.325c0.748,-1.851 1.406,-3.78 2.813,-5.063c0.686,-0.306 1.373,-0.612 2.059,-0.919c0.093,0.852 0.448,1.838 0.225,2.532c-0.51,1.601 -0.627,2.935 0.696,3.864c0.456,0.32 1.316,0.657 1.557,0.381c1.516,-1.732 0.494,-3.923 0.495,-5.94c0.244,-0.591 0.488,-1.182 0.731,-1.774c2.172,-1.842 3.136,-1.453 3.543,1.46c0.182,1.318 -0.21,2.738 0.303,3.989c0.961,2.349 2.34,3.369 4.376,1.877c0.852,-0.595 0.747,-2.418 1.651,-2.941c-0.19,-0.188 -0.379,-0.379 -0.473,-0.674c0.494,0.055 0.891,0.268 1.251,0.542c0.031,0.004 0.051,-0.006 0.082,-0c0.026,0.039 0.035,0.073 0.06,0.111c0.577,0.495 1.026,1.203 1.404,2.028c0.495,1.194 0.814,2.441 0.942,3.954c0.452,0.446 0.878,1.143 1.265,2.189c0.061,0.17 0.176,0.244 0.259,0.376c1.853,-2.956 3.537,-4.896 6.55,-3.726c0.979,0.38 1.263,-1.471 1.251,-2.734l1.445,0.769c0.352,0.898 0.493,1.968 1.237,2.542c0.043,-0.122 0.031,-0.265 0.093,-0.379c0.536,-0.698 1.247,-0.739 1.941,-0.844c0.858,-0.085 1.679,-0.334 2.484,-0.648c-0.011,-0.542 -0.022,-1.082 -0.033,-1.623c1.002,-0.636 2.005,-1.272 3.007,-1.908c-0.111,-1.525 0.576,-2.566 1.358,-3.551c2.129,2.095 1.114,3.126 -0.821,3.846c0.032,0.756 0.063,1.513 0.095,2.269c0.104,0.018 0.209,0.021 0.311,0.048c0.122,0.048 0.199,0.161 0.307,0.229c0.984,-0.042 1.968,-0.084 2.953,-0.126c0.002,-0.001 0.003,-0.002 0.006,-0.003c0.723,-0.515 1.609,-0.849 2.127,-1.591c0.677,-0.974 -1.153,-4.087 1.371,-3.407c2.394,0.644 0.434,3.317 0.769,5.011c-0.395,0.624 -0.79,1.246 -1.187,1.871c2.88,0.197 5.777,0.621 8.518,-1.016c1.44,0.315 2.879,0.63 4.32,0.945c0.96,-0.195 1.918,-0.391 2.878,-0.586c0.781,1.701 0.153,4.903 2.976,4.421c-0.135,-0.875 -0.364,-2.076 0.61,-2.102c1.318,-0.036 0.896,1.305 0.751,2.293c0.496,0.509 0.992,1.018 1.49,1.526c-0.508,-3.676 1.263,-5.068 3.68,-5.814c0.033,-0.144 0.033,-0.331 0.109,-0.426c1.41,-1.808 1.061,-6.568 3.537,-5.772c3.827,1.23 -1.903,3.728 -0.109,5.834c0.234,0.291 0.468,0.58 0.703,0.871l1.529,-0.144c0.972,-0.757 1.945,-1.038 2.928,-0.032c2.484,-0.187 6.219,1.635 4.679,-4.859c-0.252,-1.058 1.08,-2.413 1.547,-1.468c1.838,3.714 4.084,0.436 6.049,0.944c1.375,-2.19 2.556,-2.302 3.616,-1.102c0.002,-0.242 0.004,-0.482 0.005,-0.724c-0.323,-0.798 -0.648,-1.596 -0.971,-2.394c-0.028,-0.003 -0.053,0.005 -0.08,0.002c-0.396,-0.07 -0.758,-0.254 -1.081,-0.55c-0.604,-0.989 -1.171,-1.994 -0.853,-3.356c2.43,-0.813 4.925,-2.028 6.596,1.734c-0.233,0.311 -0.468,0.622 -0.7,0.933c-0.486,0.603 -0.975,1.204 -1.46,1.807c0.075,1.127 0.432,2.038 1.258,2.595c2.535,1.363 2.041,4.183 2.194,6.696c1.021,0.252 1.532,-0.46 1.615,-1.99c0.251,-0.302 0.501,-0.605 0.753,-0.906c2.4,-2.959 4.802,1.037 7.203,-0.007c1.639,-2.125 -3.218,-4.263 0.008,-6.385c4.519,8.054 8.319,4.687 12.091,-0.28c-0.039,-1.334 -0.141,-2.688 -0.343,-4.099c-0.067,-0.463 -0.093,-1.94 0.091,-1.807c0.184,0.134 1.052,0.457 1.168,2.276c0.037,0.569 0.056,1.393 0.067,2.309c0.238,-0.327 0.476,-0.655 0.715,-0.986c0.066,1.568 -0.254,2.682 -0.71,3.599c-0.006,1.289 -0.024,2.548 -0.044,3.482c1.304,-5.189 1.842,-7.767 1.14,-14.466c-0.233,-2.219 2.266,-3.012 3.109,-2.61c0.844,0.401 1.287,3.383 2.144,-1.197c0.185,-0.988 0.866,-0.091 1.442,1.222c0.122,-2.198 0.331,-4.593 1.137,-5.822c1.065,-1.627 2.267,-2.391 3.369,0.695c1.101,3.087 2.106,4.205 3.313,0.428c0.727,-2.276 1.657,-1.989 2.4,-0.161c0.742,1.828 1.125,2.656 1.824,4.408c0.195,0.49 0.403,0.926 0.617,1.317c1.277,-0.389 2.595,-0.929 3.786,-1.306c0.415,-0.133 1.179,-1.646 1.179,-2.141c-0.002,-7.969 0.749,-4.643 2.262,-4.023c0.008,-0.125 0.02,-0.236 0.027,-0.365c0.027,-0.481 0.2,-0.914 0.36,-1.025c0.457,-0.314 0.889,-0.27 1.304,0.015c1.22,-0.689 2.307,1.542 3.59,1.747c0.094,-0.527 0.193,-1.136 0.304,-1.852c0.348,-2.249 1.238,-2.257 1.738,-0.901c0.143,0.387 0.272,0.767 0.397,1.132c0.64,-0.864 1.349,-0.044 1.833,-1.442c-0.003,-0.014 -0.006,-0.033 -0.009,-0.046c-0.134,-0.697 -0.18,-1.088 -0.208,-1.503c-0.208,-3.013 0.185,-5.992 1.274,-4.384c1.089,1.608 2.624,1.803 3.454,4.91c1.094,4.097 2.038,6.71 3.847,6.347c1.181,-0.238 2.3,-0.859 3.411,-1.093c1.112,-0.234 1.463,-3.469 1.925,-5.71c0.461,-2.243 0.813,-4.743 1.73,-2.855c0.918,1.889 1.413,6.139 0.695,9.68c-0.061,0.305 -0.155,0.61 -0.244,0.915c0.017,0.055 0.036,0.11 0.055,0.174c0.066,-0.368 0.168,-0.695 0.346,-1.026c0.401,-0.744 0.767,-0.114 1.17,0.76c2.007,4.351 3.942,1.993 6.2,1.065c1.082,-0.443 0.575,-4.7 0.244,-6.68c0.011,-0.021 0.023,-0.035 0.034,-0.054c-0.007,-0.018 -0.015,-0.034 -0.023,-0.051c-1.926,-4.785 -4.329,-8.451 -5.855,-14.256c-0.538,-2.047 -0.625,-4.936 0.347,-4.228c1.932,1.408 2.8,-3.736 4.954,-0.222c0.373,0.608 1.611,-0.213 1.949,-4.826c0.339,-4.612 2.994,-7.769 4.805,-7.022c1.812,0.747 3.273,2.548 4.722,6.408c0.395,1.054 0.843,2.187 1.199,-0.014c0.002,-0.002 0.004,-0.004 0.006,-0.008c-0.688,-1.682 -1.359,-1.937 -1.054,-4.567c0.313,-2.696 1.197,-3.337 2.035,-2.878c1.44,0.787 2.929,2.251 4.368,3.291c0.015,-0.05 0.027,-0.1 0.043,-0.151c0.984,-3.151 -1.104,-9.162 0.692,-11.355c3.854,-4.705 7.938,-5.865 12.106,-5.968c0.002,-0.007 0.004,-0.011 0.006,-0.017c1.15,5.807 0.189,8.86 -0.95,13.671c1.906,2.122 2.58,6.933 4.492,1.529c0.409,-1.153 1.094,-0.339 1.483,1.379c0.389,1.717 1.03,3.74 1.22,6c1.049,-3.309 2.233,-5.555 3.623,-7.04c0.004,-0.004 0.007,-0.01 0.008,-0.014c-0.003,0.019 -0.009,0.087 -0.005,0.273c0.006,0.348 -0.247,1.529 -0.436,1.646c-1.981,1.221 -1.73,5.074 -1.058,10.056c-1.617,-4.331 -3.301,-8.288 -4.437,-0.43c-0.523,3.607 -0.399,8.905 0.041,12.281c0.441,3.376 1.802,3.18 2.621,4.614c0.079,0.139 0.52,-0.556 0.428,-0.971c-0.663,-2.99 -0.452,-7.167 -0.677,-10.549c-0.079,-1.187 -0.329,-3.325 -0.247,-3.612c0.086,-0.299 0.865,1.518 0.985,2.095c0.332,1.599 2.484,4.061 2.678,2.769c1.117,-7.442 2.241,-5.053 4.268,-4.211c0.5,0.207 0.842,1.619 1.069,0.095c0.229,-1.526 -0.258,-3.077 -0.513,-3.472c-2.387,-3.695 -2.177,-6.724 -0.153,-11.207c0.016,-0.036 0.064,0.024 0.063,0.076c-0.021,2.445 0.624,5.777 1.381,5.22c0.757,-0.557 0.519,0.317 0.42,-3.26c-0.1,-3.577 -1.076,-10.68 1.499,-2.923c0.111,0.33 0.758,-0.326 0.957,-1.036c0.899,-3.196 1.884,-6.653 2.755,-9.998c0.921,3.688 1.656,2.926 2.954,0.735c0.673,-1.138 1.351,0.357 2.013,1.857c0.663,1.5 1.41,1.393 1.265,-1.839c-0.146,-3.231 -0.197,-4.034 1.102,-3.835c1.297,0.2 1.939,-4.728 2.44,-7.463c0.016,-0.091 0.036,-0.172 0.054,-0.26c-0.035,0.004 -0.069,0.001 -0.104,0.006c-0.462,0.06 -0.833,0.501 -1.37,0.641c-0.537,0.142 -1.349,0.407 -1.928,0.553c0.054,-3.012 0.843,-1.601 1.373,-2.699c1.234,-2.553 0.852,-7.04 2.354,-9.21c1.503,-2.17 2.969,-2.484 4.652,1.1c0.969,2.065 -0.69,7.803 -1.569,9.566c-0.048,0.005 -0.095,0.003 -0.142,0.007c0.003,0.046 0.009,0.083 0.012,0.129c0.267,4.102 -0.183,6.262 -0.967,7.566c0.006,0.157 0.012,0.315 0.012,0.471c0.009,3.594 -0.682,5.056 -1.451,6.6c0.479,2.176 1.07,4.166 1.72,5.294c1.075,1.868 2.348,-1.123 2.688,-3.405c0.341,-2.282 0.301,-3.572 0.81,-4.229c0.509,-0.657 0.695,0.43 1.057,0.923c0.227,0.309 0.452,0.554 0.676,0.765c0.625,-3.136 1.487,-4.536 -0.542,-8.69c-0.315,-0.645 -0.271,-9.654 0.506,-11.665c1.435,-3.715 3.281,-2.076 4.378,2.043c1.096,4.119 -0.399,9.651 -1.088,11.408c-0.688,1.756 -1.855,5.449 -1.446,6.692c0.917,2.788 1.206,-2.326 1.76,-3.668c1.431,-3.46 3.155,-0.526 4.543,0.201c0.816,0.428 2.64,0.604 2.275,3.222c-0.582,4.179 -1.998,3.748 -3.267,3.289c0.074,0.522 0.114,1.095 0.098,1.719c-0.057,2.135 -0.34,2.599 -0.75,4.712c-0.412,2.113 -0.48,6.666 -0.147,8.871c0.333,2.206 0.528,2.461 0.543,4.563c0.014,2.102 -0.654,3.557 -1.146,4.702c-0.106,0.247 -0.22,0.492 -0.336,0.738c0.683,-0.532 1.365,-1.537 2.103,-2.715c0.439,-0.699 0.901,-1.506 1.222,-1.193c0.32,0.314 0.388,0.562 0.434,1.082c0.01,0.111 0.011,0.205 0.019,0.312c0.998,-0.808 1.544,2.263 1.782,4.625c0.811,8.053 1.221,8.243 3.667,6.681c0.019,-0.012 0.04,-0.015 0.059,-0.026c-0.006,-0.098 -0.012,-0.184 -0.015,-0.293c-0.049,-1.76 0.102,-3.829 0.636,-5.074c1.045,-2.439 1.841,-0.687 2.108,2.44c0.266,3.126 0.812,3.702 1.428,5.277c1.221,3.121 1.676,5.298 1.2,10.195c-0.14,1.438 -0.154,2.614 -0.057,4.372c0.096,1.759 0.11,4.851 0.901,5.139c0.79,0.289 0.903,-2.164 1.073,-4.082c0.172,-1.917 0.552,-3.202 1.162,-3.52c1.914,-0.997 2.957,-4.483 4.092,-9.037c0.634,-2.543 1.242,-4.718 1.79,-7.366c0.096,-0.457 0.193,-0.774 0.329,-1.028c0.02,-0.037 0.011,0.022 0.027,0.077c0.578,1.999 1.649,2.707 2.328,1.793c0.678,-0.915 0.836,-1.655 1.374,-2.674c-0.171,1.27 -0.587,2.375 -0.117,3.701c0.471,1.328 0.962,0.109 1.604,-0.599c0.642,-0.707 1.699,-1.988 2.422,-2.423c0.723,-0.433 1.285,-0.358 1.653,1.771c0.368,2.127 -0.12,3.735 -0.583,4.982c-0.463,1.247 -1.059,2.011 -1.18,3.899c-0.265,4.11 -0.148,8.277 -0.675,12.201c-0.224,1.667 -0.072,1.953 0.651,2.601c0.314,0.281 0.702,0.488 1.121,0.551c0.299,-0.204 0.638,-0.277 1.035,-0.172c0.234,-0.117 0.468,-0.283 0.7,-0.527c0.834,-0.882 1.469,0.133 1.839,2.347c0.737,0.246 1.622,-0.024 2.407,-0.316l0.019,0.002c0.901,-1.599 1.297,-4.059 3.096,-4.118c0.823,-3.031 1.833,-3.081 2.669,-0.532c0.581,-0.341 1.19,-0.453 1.879,0.099c0.261,0.247 0.492,0.54 0.694,0.862c0.35,0.267 0.683,0.556 1.016,0.844c1.236,-0.267 2.48,-0.568 3.354,0.538c0.05,-0.276 0.094,-0.583 0.119,-0.961c0.293,-4.348 0.953,-5.487 2.331,-6.78c1.379,-1.292 1.508,-2.478 0.839,-6.863c-0.67,-4.383 -0.739,-6.737 0.992,-9.38c1.73,-2.645 3.434,-3.452 4.79,2.839c0.528,2.453 1.495,4.316 2.215,6.736c0.719,2.422 0.782,0.517 1.315,-0.958c1.137,-3.146 1.743,-5.663 3.073,-2.12c0.243,6.743 1.062,7.822 3.075,6.962c2.012,-0.861 4.014,-2.165 5.958,-2.202c1.945,-0.037 3.526,-2.416 5.402,-2.331c0.429,0.018 0.745,0.997 1.012,2.094c0.266,1.097 0.528,4.408 -0.105,5.166c-2.04,2.443 -4.796,3.521 -6.821,5.31c-1.793,1.584 -3.271,0.68 -4.89,2.064c0.18,0.304 0.33,0.752 0.414,1.456c0.24,-0.449 0.785,-1.042 0.661,0.744c-0.143,2.053 -0.686,3.628 -0.158,5.714c0.336,-1.32 0.8,-3.012 1.1,-4.33c0.572,-2.509 1.292,-1.885 1.832,-0.56c0.147,-0.507 0.266,-0.727 0.414,-0.727c1.658,-0.001 3.595,-2.604 5.14,-1.615c1.545,0.989 1.815,2.89 1.129,6.929c-0.452,2.663 -1.076,5.029 -1.49,7.723c0.412,0.123 0.808,0.229 1.191,0.315c1.147,-4.828 2.731,-7.962 4.263,-11.677c0.026,-0.167 0.052,-0.33 0.076,-0.474c0.213,-1.341 0.275,-2.166 0.507,-2.86c0.232,-0.693 0.472,-0.653 0.692,-0.756c1.13,-0.527 2.241,-3.642 2.949,-5.464c0.709,-1.821 0.496,-3.304 0.325,-4.844c-0.172,-1.539 -0.351,-0.7 -0.445,-2.297c-0.094,-1.599 -0.031,-4.467 -0.226,-6.167c-0.196,-1.703 0.01,-4.106 0.627,-4.258c1.099,-0.27 1.589,2.779 2.157,5.384c0.567,2.605 1.036,4.235 2.109,2.867c0.422,-0.537 0.972,-0.405 1.304,0.626c1.108,3.453 1.877,1.898 3.095,0.141c0.039,-0.056 0.074,-0.106 0.11,-0.159c-0.327,-2.246 -0.777,-4.097 -1.348,-5.867c-0.163,0.236 -0.325,0.469 -0.487,0.656c-0.874,1.01 -0.914,-0.475 -1.47,-1.86c-0.557,-1.384 -1.018,-3.356 -0.787,-5.847c0.233,-2.491 1.262,-3.262 1.769,-3.352c0.506,-0.09 0.482,-0.435 0.697,-0.68c0.216,-0.244 0.187,-0.075 0.275,-0.288c0.858,-2.077 1.081,-3.437 2.133,-5.473c1.052,-2.035 2.135,-3.969 1.973,2.774c-0.045,1.879 0.404,3.805 1.072,4.486c0.667,0.681 1.051,-0.907 0.897,-2.344c-0.153,-1.437 -0.537,-0.86 -0.685,-1.611c-0.148,-0.75 0.048,-2.701 0.109,-2.728c0.987,-0.421 2.503,-0.379 3.301,-0.16c0.797,0.218 0.559,1.471 0.503,2.938c-0.143,3.717 0.278,5.215 1.472,5.569c0.001,0.008 0.002,0.013 0.003,0.02c1.715,-0.463 2.539,-5.35 4.328,-4.694c0.285,3.698 0.392,4.249 -0.654,7.406c-1.046,3.156 -0.702,8.897 0.56,11.419c1.262,2.521 1.074,5.294 1.232,9.183c0.431,-3.093 0.912,-9.5 1.363,-11.834c0.015,-0.074 0.03,-0.132 0.045,-0.198c-0.015,-0.07 -0.036,-0.135 -0.048,-0.206c1.038,-4.124 0.126,-7.223 -0.04,-11.593c-0.04,-1.074 0.046,-2.269 0.104,-2.798c0.058,-0.529 0.61,-0.063 0.637,0.168c0.978,8.461 2.84,1.759 4.57,2.472c1.731,0.712 2.336,-1.729 3.422,2.647c0.003,0.013 0.006,0.027 0.009,0.039c0.003,-0.008 0.004,-0.017 0.006,-0.025c0.076,-0.228 0.246,-0.234 0.36,-0.125c-0,-0.019 -0.001,-0.036 -0.001,-0.055c2.742,-1.412 5.241,-0.074 7.951,1.458c3.759,2.124 7.155,3.383 10.847,-0.508c0,0.066 -0.001,0.123 -0.001,0.187c0.004,-0.023 0.009,-0.041 0.013,-0.064c0.223,-1.178 0.507,-3.147 0.811,-3.225c0.362,-0.093 1.118,0.988 1.451,2.164c0.332,1.175 -0.6,2.96 -0.723,4.207c-0.124,1.248 -0.297,4.673 -0.028,5.453c0.185,0.536 0.781,-0.848 1.256,-1.167c2.804,-1.884 6.406,2.226 7.343,11.256c0.162,1.571 0.132,3.31 -0.048,3.759c-0.199,0.492 -0.818,-1.342 -1.272,-1.764c-0.297,-0.277 -0.971,-1.481 -1.522,-2.398c0.051,0.958 0.114,1.99 0.367,2.92c0.54,1.987 1.313,3.616 2.279,2.189c1.943,-2.874 2.48,-2.755 2.586,2.666c0.643,0.556 1.286,1.112 1.929,1.668c0.35,0.183 0.584,0.48 0.754,0.837c0.174,-0.372 0.366,-0.724 0.669,-0.976c0.284,-0.045 0.556,-0.117 0.822,-0.209c0.015,-0.084 0.023,-0.187 0.044,-0.251c1.496,-4.4 2.956,-3.98 4.528,-2.632c0.237,-0.144 0.476,-0.278 0.722,-0.395c1.667,-1.113 2.49,-2.798 2.23,-5.216c0.702,0.486 1.405,0.973 2.107,1.46c1.192,0.843 2.368,1.061 3.509,-0.139c0.51,-1.442 1.019,-2.884 1.531,-4.326c0.036,-0.558 0.074,-1.115 0.111,-1.673c0,0.001 -0.022,-0.031 -0.022,-0.031c0.631,-2.108 0.77,-4.376 1.351,-6.499c0.469,0.318 0.938,0.637 1.407,0.955c1.545,0.372 0.969,-1.146 1.13,-2.007c0.19,-1.023 -0.521,-2.708 1.019,-2.769c1.221,-0.049 1.981,0.918 2.074,2.545c-0.419,2.513 2.367,3.271 2.197,5.648c0.012,-0.03 0.031,-0.055 0.04,-0.083c0.213,-0.133 0.419,-0.17 0.62,-0.172c-0.054,-0.212 -0.121,-0.417 -0.15,-0.644c-0.045,-0.936 0.006,-1.867 0.207,-2.775c0.165,-0.627 0.329,-1.262 0.559,-1.863c1.14,-1.753 0.86,-4.765 3.092,-5.566c1.238,-0.207 1.969,0.615 2.623,1.833c0.592,1.107 1.292,2.29 2.602,1.282c0.631,-0.361 1.26,-0.724 1.889,-1.086c1.15,-6.407 3.466,-1.097 5.279,-0.832c0.126,-1.083 4.147,0.256 1.097,-2.903c-0.896,-0.931 -0.789,-2.433 0.33,-3.427c0.054,-1.145 0.105,-2.29 0.158,-3.435c2.935,-1.202 5.736,0.1 8.573,0.729c2.066,-0.624 0.655,-1.356 0.044,-2.073c-0.632,-0.74 -1.839,-0.98 -1.45,-2.616c4.551,-0.038 6.913,3.107 7.754,8.458c0.546,0.54 1.093,1.08 1.639,1.62c1.649,0.501 3.326,1.074 2.294,-2.446c-0.159,-0.543 -0.121,-1.177 -0.181,-1.768c-0.272,-2.696 -0.005,-6.018 2.14,-6.306c1.856,-0.249 0.992,3.327 1.55,5.109c2.515,0.389 5.885,-3.613 7.397,2.466c0.201,0.81 3.441,1.33 3.488,1.164c2.922,-10.054 2.744,1.412 4.092,0.898c3.998,-1.524 7.756,5.373 11.95,0.337c1.062,-1.276 3.792,-0.314 3.849,1.072c0.165,3.915 2.211,2.763 3.806,3.066l0.002,-0c-0.487,-2.434 -2.567,-6.076 2.211,-4.489c0.444,0.148 1.77,-0.956 0.646,-1.531c-2.444,-1.252 -1.964,-4.092 -1.079,-4.991c0.908,-0.921 2.726,0.67 3.833,2.071c0.325,0.413 0.79,0.649 1.192,0.965c-0.314,0.564 -0.626,1.128 -0.94,1.691c2.811,-0.452 6.031,-2.992 8.02,0.744c0.404,0.063 0.818,0.23 1.257,0.618c1.481,0.632 2.878,1.38 3.965,2.937c1.109,1.59 2.426,2.544 3.929,0.613c0.281,-0.362 0.703,-0.689 0.898,-0.398c2.096,3.117 5.053,0.516 7.403,1.825l0.006,-0.043c0.333,0.833 0.706,1.643 1.601,1.103c0.424,-0.257 1.107,-0.875 1.254,-0.586c2.26,4.464 6.094,1.837 9,3.268c0.438,0.215 0.835,0.565 1.286,0.759c0.879,0.059 1.758,0.118 2.636,0.177c4.036,0.177 7.02,4.689 11.209,4.321c0.404,-0.036 0.648,0.8 0.824,1.355c0.456,0.759 0.889,1.507 1.28,2.269c0.175,0.072 0.347,0.141 0.521,0.213c3.474,-0.004 4.44,4.18 6.64,6.304c0.212,0.263 0.425,0.526 0.637,0.789c0.92,0.258 1.843,0.516 2.763,0.774c0.105,-0.243 0.187,-0.493 0.214,-0.763c0.049,-0.786 0.255,-1.525 0.419,-2.285c0.132,-0.376 0.286,-0.736 0.447,-1.096c0.253,-0.81 0.603,-1.223 1.016,-1.435c0.301,-1.12 1.447,-1.587 3.509,-1.214c3.038,0.551 6.048,0.903 9.098,0.619c0.013,-0.007 0.025,-0.009 0.039,-0.015c0.152,-0.067 0.311,-0.097 0.467,-0.147c-0.006,0.044 -0.015,0.087 -0.021,0.131c0.027,-0.002 0.053,-0.001 0.079,-0.004c-0.013,0.023 -0.027,0.04 -0.039,0.063c3.979,2.541 -2.118,3.893 -0.428,6.248c1.202,-0.532 1.93,-2.761 3.661,-2.028c-0.286,1.904 -2.857,2.842 -1.781,4.552c1.01,1.612 2.716,-0.352 3.809,-1.113c2.872,-1.998 5.663,-1.398 8.252,-0.238c1.504,-2.13 -3.461,-5.181 1.042,-6.406c-0.258,-0.316 -0.516,-0.632 -0.774,-0.948c-0.088,-0.16 -0.186,-0.265 -0.28,-0.391c0.474,0.017 0.981,0.097 1.502,0.171c1.084,0.549 1.249,1.888 1.514,3.033c0.672,2.891 2.072,4.486 4.527,4.463c0.903,0.727 2.112,0.623 3.174,0.917c3.251,-1.553 6.522,-3.03 9.999,-3.688c1.148,0.066 2.297,0.13 3.444,0.196c1.243,0.805 2.485,1.61 3.727,2.416c2.672,0.228 5.32,1.435 7.804,-1.44c1.407,-1.627 3.709,0.259 5.494,-0.835c0.826,0.315 1.717,0.014 2.528,0.435c0.32,6.749 5.282,4.516 8.028,6.573c0.242,0.311 0.484,0.623 0.725,0.935c0.724,0.611 1.449,1.223 2.172,1.833c2.898,-0.888 2.784,1.379 2.956,3.348c0.311,0.171 0.607,0.077 0.815,-1.152c0.313,-1.79 0.073,-3.615 0.028,-5.402c-0.082,-3.303 -0.197,-6.47 0.835,-8.859c0.478,-1.106 0.491,-3.223 0.509,-5.089c0.03,-2.899 0.501,-4.493 1.434,-4.187c0.986,0.323 1.871,1.317 1.803,5.245c-0.028,1.638 -0.148,3.256 -0.045,4.907c0.26,4.188 0.922,5.785 2.182,4.305c1.145,-1.347 2.028,0.917 3.041,1.24c1.704,0.544 3.71,-4.023 3.577,-9.246c-0.105,-4.163 0.324,-6.254 1.496,-7.315c0.472,-0.428 0.975,-0.906 0.756,-2.879c-0.253,-2.284 -0.741,-0.903 -1.141,-0.411c-1.166,1.435 -2.199,-0.186 -3.186,-1.514c0.322,-0.356 0.645,-0.715 0.969,-1.04c0.119,-0.026 0.235,-0.02 0.359,-0.098c0.406,-0.256 0.751,-0.782 1.11,-1.432c0.097,0.255 0.199,0.492 0.314,0.678c0.177,0.226 0.354,0.456 0.532,0.684c0.233,0.189 0.466,0.223 0.698,0.178c0.311,-0.135 0.622,-0.112 0.933,-0.054c0.315,0.209 0.623,0.49 0.926,0.848c0.192,0.266 0.385,0.525 0.576,0.799c0.528,0.76 1.131,1.256 1.71,0.643c0.531,-0.562 1.055,-1.63 1.313,-3.256c0.316,-2.003 0.447,-3.765 0.48,-5.999c0.008,-0.548 0.005,-1.095 0.004,-1.642c0.51,-0.41 1.033,-0.736 1.572,-0.965c0.9,5.674 3.422,7.667 4.82,3.242c0.857,-2.716 1.532,-6.466 3.012,-3.989c1.296,2.168 3.048,3.191 3.094,8.16c0.142,-1.025 0.477,-1.642 1.099,-1.006c0.733,0.75 1.493,0.371 2.188,1.29c0.003,0.001 0.006,0.001 0.009,0.002c-0.322,-0.712 -0.615,-1.494 -0.728,-2.827c-0.105,-1.24 -0.235,-2.865 -0.576,-3.288c-0.943,-1.171 -1.811,-3.036 -2.687,-4.813c0.463,0.527 0.97,0.709 1.423,0.439c0.031,-0.018 0.063,-0.048 0.094,-0.068c0.588,1.6 1.433,2.447 2.407,2.688c0.285,1.748 0.793,3.127 1.475,3.619c2.817,-8.077 6.764,-9.023 10.163,-13.423l0.059,8.757c1.786,-5.482 0.653,-12.113 0.544,-18.052c-0.111,-6.057 0.299,-6.95 2.116,-7.388c0.155,2.992 0.859,5.488 2.112,5.089c0.554,-0.176 1.286,-0.65 1.832,-0.046c0.604,0.668 0.902,2.555 1.307,3.948c0.108,0.372 0.223,0.704 0.34,1.032c-0.902,1.025 -1.736,2.758 -2.518,4.844c-1.07,2.853 -1.683,6.515 -1.695,11.01c0.045,0.163 0.081,0.372 0.12,0.567c0.001,-0.002 0.002,-0.005 0.003,-0.008c-0.035,-0.187 -0.064,-0.372 -0.111,-0.563c0.381,-7.208 0.627,-7.976 2.761,-8.059c0.685,-0.027 1.202,-1.005 1.75,-2.096c0.484,-0.967 0.962,-1.911 1.452,-2.683c0.681,0.52 1.408,0.439 2.141,-0.435c0.196,-0.233 0.36,-0.588 0.535,-0.903c0.268,0.185 0.544,0.445 0.835,0.856c0.971,1.367 2.175,0.629 3.098,-1.951c0.246,0.081 0.493,0.207 0.736,0.17c0.612,-0.09 1.14,-0.745 1.68,-1.37c0.087,0.221 0.17,0.418 0.264,0.7c2.026,6.108 4.875,9.566 7.377,0.205c0.516,-1.929 0.94,-7.887 1.51,-9.747c0.593,-1.19 1.278,1.522 1.897,0.499c0.661,-0.124 1.398,0.778 2.067,1.45c0.107,0.029 0.189,0.057 0.286,0.086c0.333,-0.928 0.719,-1.525 1.179,-1.674c-0.047,-0.562 -0.089,-1.133 -0.148,-1.661c0.722,0.043 1.438,0.203 2.104,0.257c1.479,0.119 2.175,-3.444 2.103,-7.032c0.27,-0.433 0.517,-1.115 0.708,-2.205c0.819,-4.686 -0.927,-5.74 -1.748,-7.909c-0.399,-1.056 -0.822,-2.083 -1.28,-2.854c-1.517,-2.556 -4.021,-3.571 -3.204,-11.096c0.023,-0.209 0.064,-0.356 0.091,-0.552c0.677,-0.083 1.41,-0.38 2.129,-0.487c0.708,0.334 1.268,1.385 1.92,3.107c0.752,-0.514 1.835,0.716 2.641,0.201c4.569,-2.925 8.962,4.663 13.564,2.32c1.335,-0.679 1.345,5.471 2.467,7.634c0.292,-15.852 3.214,-2.423 3.643,-1.899c3.837,4.686 7.772,5.466 11.774,5.657c0.356,1.448 0.711,2.897 1.066,4.346c0.997,1.12 0.624,-5.894 1.125,-3.053c0.928,5.267 4.667,-1.426 3.875,9.749c-0.106,1.504 0.281,3.384 0.488,5.031c0.018,0.143 0.523,0.061 0.581,-0.285c0.449,-2.673 0.108,-5.256 -0.107,-7.932c-0.199,-2.486 -1.956,-4.079 -0.764,-6.911c0.955,-2.269 1.933,1.398 2.921,2.606c2.1,2.565 4.398,3.524 6.778,5.261c-0.339,-3.518 -0.493,-6.989 0.923,-8.049c0.564,-0.422 1.556,-1.647 1.662,0.895c0.22,5.281 0.664,11.737 -0.068,15.747c-0.598,3.277 -1.347,-3.859 -2.586,-4.689c0.236,1.839 0.448,3.655 0.593,5.427c0.158,0.184 0.319,0.35 0.48,0.467c0.386,0.279 0.802,0.476 1.199,0.373c0.775,-0.203 1.531,-1.007 2.075,-2.847c0.001,-0.005 0.002,-0.01 0.003,-0.015c0.316,-5.119 2.099,-9.48 1.158,-15.295c-0.007,-0.052 0.173,-0.596 0.265,-0.595c1.989,0.03 3.645,4.229 5.856,3.213c2.217,-1.021 3.353,2.769 3.432,11.562c0.047,5.232 2.344,10.264 3.938,16.619c-0.213,-6.599 -1.424,-9.426 -2.275,-12.925c-0.478,-1.961 -1.271,-3.693 -0.638,-6.654c0.467,-2.184 0.73,-5.216 1.867,-4.924c1.073,0.275 1.718,2.231 1.942,5.374c0.224,3.146 0.532,6.439 0.436,9.557c-0.165,5.35 0.831,7.499 2.125,8.351c1.861,1.226 3.032,5.373 4.383,8.847c0.001,-0.004 0.002,-0.007 0.003,-0.011c1.602,-1.01 3.097,-1.385 3.296,5.907c3.775,-20.401 3.775,-20.401 1.98,-28.891c3.443,5.058 5.723,12.644 8.005,20.227c2.977,-4.449 4.627,-0.825 5.279,8.688c0.543,7.924 2.865,4.25 4.29,6.065c1.235,1.575 2.476,2.573 3.425,5.695c1.049,0.334 2.098,0.669 3.147,1.003c0.68,-0.299 1.359,-0.789 2.041,-0.852c0.691,-0.065 1.646,-0.923 2.166,0.262c0.524,-0.443 1.027,-1.072 1.499,-1.964c0.194,-0.25 0.396,-0.357 0.599,-0.385c0.12,-1.062 0.409,-2.097 0.411,-3.182c0.089,-0.255 0.146,-0.521 0.176,-0.795c-0.199,-0.008 -0.386,-0.067 -0.564,-0.178c-2.472,-0.004 -2.772,-2.033 -2.63,-4.471c0.836,-0.42 1.671,-0.839 2.507,-1.259c0.09,-6.545 3.545,2.005 4.309,-1.521c-0.13,5.574 3.658,1.825 5.262,3.429c0.694,0.696 2.149,-0.841 2.874,0.872c-0.032,0.109 -0.066,0.216 -0.098,0.324c0.014,0.003 0.028,0.002 0.042,0.005c0,-0.001 0.056,-0.329 0.056,-0.329c2.405,1.27 4.808,2.539 7.212,3.808c0.672,0.055 1.346,0.109 2.019,0.165c-0.019,0.179 -0.017,0.358 0.003,0.536c0.058,0.208 0.123,0.38 0.188,0.551c2.06,-5.043 4.216,-9.725 6.324,-14.584c1.013,-2.337 2.06,-1.062 2.961,0.548c5.16,9.207 10.207,0.669 15.273,-1.062c1.219,-0.416 2.229,-1.335 3.183,1.567c0.706,1.81 1.41,3.619 2.116,5.429c1.261,-0.803 1.454,-3.183 0.627,-5.789c-1.321,-4.166 -2.777,-7.914 -4.189,-11.792c-0.389,-1.065 -1.022,-1.977 -0.627,-3.824c0.179,-0.842 0.972,-1.477 1.201,-0.957c3.301,7.505 7.204,11.764 10.285,20.816c2.116,6.216 5.049,10.07 7.792,13.675c0.796,1.047 1.603,1.962 2.417,2.746c1.358,-0.354 2.676,-0.459 3.861,1.314c0.509,0.298 0.712,0.808 0.693,1.474c1.704,0.435 3.436,0.186 5.191,-0.904c0.223,-0.137 0.582,-0.283 0.679,0.09c3.339,12.832 6.761,2.041 10.144,0.405c1.279,-0.619 1.924,-2.806 2.643,-6.593c1.32,-6.952 3.979,-8.136 6.334,-9.843c0.991,-0.718 1.586,-1.045 1.713,-5.154c0.164,-5.28 1.632,-3.901 2.774,-3.408c1.67,0.721 3.704,3.686 4.678,-1.889c0.253,-1.443 -2.63,-2.944 -4.072,-4.423c-0.893,-0.915 -2.012,-0.248 -2.557,-3.608c0.254,-0.312 0.508,-0.624 0.762,-0.937c0.321,0.665 0.708,1.076 1.155,1.087c1.112,0.03 2.221,-0.162 3.332,-0.238c0.665,0.388 1.324,0.965 1.984,1.539c-0.033,0.038 -0.064,0.057 -0.098,0.096c0.883,2.144 1.805,2.567 2.643,3.537c1.533,1.776 1.851,4.23 0.787,8.053c-1.045,3.75 -0.552,5.166 0.637,6.274c0.673,0.625 1.274,1.769 1.915,2.628c1.397,1.877 2.644,2.921 3.966,-1.266c0.682,-2.161 1.754,-3.214 2.55,-5.421c0.776,-2.151 1.606,0.713 2.436,1.064c-0.034,-7.83 0.442,-9.315 3.419,-7.805c2.439,1.239 4.52,-1.193 6.638,-4.005c0.509,-0.677 0.976,-0.65 1.515,-0.361c2.273,1.22 4.648,0.946 6.743,4.754c0.112,0.203 0.292,-0.456 0.393,-0.929c1.256,-3.65 2.43,-6.359 4.39,-3.593c1.147,1.617 2.83,3.018 3.825,-2.405c0.244,-1.33 0.766,-1.634 1.24,-1.116c0.415,0.454 0.618,1.3 0.693,2.353c0.455,-1.26 1.006,-1.183 1.573,-0.895c0.521,-0.085 0.845,0.856 1.14,2.072c1.513,6.221 2.902,7.002 5.114,2.814c0.365,-0.692 0.781,-0.608 1.145,-1.147c0.529,-1.017 1.22,-1.838 1.014,-4.337c-0.177,-2.134 -0.836,-2.765 -1.434,-3.42c-1.095,-1.201 -2.444,0.179 -3.321,-3.246c1.859,-0.795 3.72,-1.59 5.579,-2.385c0.98,1.31 2.083,0.494 3.08,1.989c0.748,1.12 4.213,5.962 4.766,7.504c0.864,2.412 1.313,5.828 1.2,9.104c-0.112,3.216 -1.136,5.076 -2.122,5.658c-1.134,0.667 -2.024,-0.982 -2.528,-4.388c-0.022,-0.479 -0.06,-0.896 -0.105,-1.283c-0.809,0.044 -1.587,0.373 -1.778,3.178c-0.278,4.096 1.317,3.988 2.126,5.588c1.119,1.539 2.446,2.407 2.471,7.488l-0.023,-6.485c0.318,-2.086 0.764,-3.354 1.504,-1.874c0.588,1.176 1.357,2.657 0.949,5.12c-0.7,4.22 0.031,5.486 1.076,6.531c1.749,-0.455 1.707,-5.068 2.064,-8.784c0.179,-1.851 0.21,-4.476 1.009,-4.475c0.585,0.001 1.403,0.68 1.704,1.996c0.52,2.279 -0.703,2.496 -0.778,3.808c-0.167,2.868 -0.516,6.023 0.897,7.741c1.122,1.365 2.123,3.472 1.905,7.121c0.488,0.341 0.996,0.319 1.485,0.647l-0.601,-7.232c0.711,-3.164 1.545,-4.144 2.539,-1.237c0.847,2.477 1.487,2.001 1.992,-1.14c0.112,-1.837 0.224,-3.675 0.337,-5.513c-0.359,-1.818 -0.717,-3.635 -1.076,-5.453c-0.191,-5.185 -3.924,-3.774 -2.306,-12.275c0.188,-0.986 0.501,-2.33 0.795,-2.437c8.709,18.294 9.041,-4.092 13.532,0.449c0.194,0.196 0.454,1.343 0.422,1.901c-0.195,3.456 -1.311,2.918 -1.993,4.308c-0.11,1.821 -0.22,3.641 -0.33,5.462l0.699,-0.003c1.754,-6.237 3.842,-4.289 5.928,-2.403c-0.032,-3.833 1.749,-0.665 1.73,-4.447c1.175,3.213 2.352,6.427 3.527,9.639c-0.562,8.037 -2.811,3.616 -4.188,5.633c-0.107,1.146 -0.215,2.294 -0.322,3.442c-1.45,2.981 1.332,5.135 0.01,10.293c-1.066,4.163 -2.382,5.121 -3.53,7.265c-0.049,0.281 -0.156,0.574 -0.297,0.876c0.217,1.365 0.2,2.606 0.078,3.767c0.05,0.012 0.09,0.025 0.143,0.035c0.306,-0.54 0.612,-1.08 0.918,-1.619c1.755,-1.855 3.904,-0.027 5.754,-0.981c0.181,0.086 0.367,0.138 0.56,0.157c-0.469,2.055 -0.231,2.846 0.306,3.104c0.086,-0.014 0.172,-0.033 0.259,-0.045c0.235,-0.035 0.465,-0.11 0.694,-0.2c0.437,-4.675 1.362,-8.735 2.129,-12.995l0.014,-0.046c-0.083,-0.547 -0.149,-1.098 -0.159,-1.641c0.645,-5.192 1.309,-6.392 2.951,-5.189c0.817,0.598 1.622,0.924 2.436,0.054c0.926,1.816 1.852,3.632 2.778,5.448c1.284,0.317 2.569,0.634 3.853,0.951c-0.243,4.17 -1.312,1.352 -1.959,2.174c-0.664,0.847 -1.688,0.485 -1.701,3.375c-0.015,3.219 1.048,1.461 1.593,2.226c0.627,1.471 2.442,1.795 0.324,5.526c-0.24,0.422 -0.457,1.286 -0.634,2.331c0.335,0.155 0.65,0.379 0.949,0.655c1.517,3.302 4.295,3.002 6.702,3.756c1.771,0.676 3.055,2.197 4.241,3.888c1.203,0.094 2.406,0.187 3.608,0.28c1.353,0.109 1.741,1.34 2.002,2.725c-0.017,0.291 -0.147,0.524 -0.241,0.775c0.139,0.017 0.279,0.033 0.419,0.051c0.731,-0.013 1.459,-0.024 2.19,-0.036c0.437,0.129 0.874,0.257 1.311,0.386c0.461,-0.036 1.008,0.16 1.588,0.468l0.002,-0.011c4.865,-0.787 9.663,-1.506 14.132,-4.655c2.175,-1.532 3.794,0.535 3.936,3.773c4.021,1.319 8.017,2.48 11.005,-2.753c0.001,-0.004 0.002,-0.007 0.004,-0.011c-0.002,0.003 -0.003,0.008 -0.006,0.011c-0.028,-0.279 -0.065,-0.557 -0.108,-0.833c0.432,-0.949 0.865,-1.898 1.297,-2.846c0.533,-1.812 1.065,-3.625 1.598,-5.437c-0.537,-3.346 2.732,-4.362 2.829,-7.32l-0.013,0.026c0.564,-1.885 1.994,-2.438 3.193,-2.19c4.055,0.836 8.079,1.138 12.143,0.326c0.894,1.441 1.915,2.454 3.478,1.639c3.498,-1.028 7.324,-0.093 10.503,-3.352c0.716,-0.733 2.711,0.512 4.118,0.846c-0.005,0.224 -0.01,0.446 -0.014,0.669c-0.01,0.163 -0.108,0.278 -0.15,0.424c0.043,0.005 0.086,0.011 0.128,0.016c0,-0.001 0.022,-0.44 0.022,-0.44c1.43,0.362 2.859,0.724 4.289,1.086c2.969,1.768 6.146,1.974 9.352,1.967c1.869,1.213 3.069,3.628 5.12,4.517c0.276,0.289 0.553,0.579 0.83,0.868c0.026,0.245 0.049,0.491 0.065,0.737c0.611,0.024 1.218,0.046 1.829,0.071c-0.244,-3.506 2.653,-3.4 3.828,-5.276c3.408,0.249 6.95,-2.221 10.227,0.775c3.141,-0.132 6.378,2.306 9.422,-0.544c1.212,-1.273 2.583,-2.068 4.169,-2.216c1.093,-1.214 2.236,-2.09 3.692,-0.841l-0.012,-0.015c0.494,-0.242 0.988,-0.484 1.481,-0.724c2.152,-0.036 4.302,-0.073 6.453,-0.109c0.088,0.25 0.167,0.504 0.233,0.764c3.783,1.04 7.984,1.076 9.925,6.541c4.11,-2.903 8.546,-2.412 12.974,-1.993c2.102,-1.066 3.884,-1.223 5.789,1.143c1.734,2.156 4.55,-0.971 6.578,1.199c0.335,-0.146 0.598,-0.03 0.788,0.345c0.459,0.023 0.918,0.045 1.377,0.067c1.821,-0.38 3.563,-0.976 4.761,-2.933c0.936,-1.529 2.457,-1.498 3.672,-2.268c1.175,-0.377 1.546,-1.852 2.344,-2.746c0.227,-0.262 0.476,-0.49 0.742,-0.691c0.258,-0.23 0.516,-0.455 0.776,-0.688c0.294,-0.194 0.605,-0.317 0.935,-0.384c2.315,-0.334 4.76,-1.884 6.698,1.176c0.002,0.112 -0.013,0.206 -0.015,0.315c2.073,-0.699 4.195,-1.635 5.429,1.928c2.422,-0.786 3.396,3.286 5.752,2.719c0.032,-0.283 0.06,-0.566 0.086,-0.849c0.697,-1.528 1.641,-1.958 2.892,-1.037l0.011,0.02c1.911,0.197 3.868,1.319 4.683,-2.593c0.446,-2.135 1.778,-0.497 2.201,0.677c0.732,2.031 1.221,4.2 1.812,6.312c1.429,-0.219 2.857,-0.436 4.284,-0.654c0.312,-0.229 0.615,-0.211 0.915,-0.072l0.578,-0.816c2.336,-4.625 3.902,-0.314 5.745,0.785c0.215,0.098 0.431,0.198 0.646,0.3c1.24,-0.604 2.446,-0.762 3.619,-0.475c0.719,-0.381 1.442,-0.743 2.211,-0.836c0.358,0.037 0.695,0.177 1.009,0.379c0.28,0.268 0.592,0.428 0.9,0.606c0.456,-0.419 0.907,-0.751 1.334,-0.707c0.591,0.061 0.614,0.693 0.54,1.394c0.428,0.059 0.791,0.309 1.128,0.627c1.604,-1.41 1.054,-2.643 2.042,-4.752c0.085,-0.077 0.179,-0.149 0.266,-0.225c-0.117,-0.018 -0.237,-0.038 -0.355,-0.056c1.658,-0.959 2.472,-2.819 3.313,-4.653c0.067,-0.229 0.166,-0.468 0.34,-0.732c0.252,-0.289 0.503,-0.577 0.753,-0.865c2.719,-2.681 4.471,0.326 6.493,1.746c0.214,0.093 0.433,0.138 0.66,0.132c0.625,-0.081 1.248,-0.133 1.863,0.083c0.011,0.006 0.021,0.014 0.031,0.022c-0.218,0.165 -0.434,0.418 -0.643,0.856c0.531,3.462 2.384,1.615 3.806,1.503c0.139,2.873 -0.828,3.299 -2.853,2.385c-1.099,-0.497 -2.736,-1.578 -3.529,0.362c-0.611,1.497 2.941,4.182 3.829,5.735c0.232,0.173 0.463,0.327 0.694,0.514c0.723,0.582 1.437,1.042 1.575,2.223c1.511,0.422 -0.51,-2.694 1.008,-2.652c1.222,0.034 3.132,0.807 2.321,-1.461c-0.446,-1.245 1.999,-2.783 1.74,-3.799c-0.328,-1.286 3.026,1.692 3.016,0.731c-0.019,-1.801 -2.994,-4.387 -1.813,-5.272c1.181,-0.886 2.995,-1.389 5.499,-1.655c2.919,-0.309 4.605,-3.184 6.576,-5.519c0.634,-0.753 2.022,-6.009 3.319,0.064c0.497,2.337 2.412,-0.171 3.679,-0.505c-0.625,-1.676 -1.32,-3.411 0.819,-4.19c2.462,-0.899 1.935,1.564 1.994,-1.043c-0.662,-0.764 2.564,0.282 2.566,-0.241c-0.071,0.01 -0.143,0.015 -0.215,0.026c-0.969,-1.486 -1.938,-2.972 -2.907,-4.457c-0.848,-1.741 0.431,-5.832 -3.189,-4.589c-0.13,0.045 -0.691,-0.886 -0.637,-1.269c0.066,-0.457 0.552,-1.113 0.901,-1.16c1.415,-0.194 2.845,-0.187 4.27,-0.252c1.225,0.885 2.453,1.771 3.678,2.656c0.158,0.223 0.231,0.474 0.265,0.741c3.39,0.343 2.113,-2.426 1.727,-4.618c-0.303,-1.73 -1.635,-4.518 1.676,-2.676c0.709,0.872 1.468,0.997 2.283,0.235c0.402,-0.281 0.801,-0.562 1.201,-0.844c0.696,2.235 0.733,5.348 3.763,4.468c0.111,-0.149 0.219,-0.203 0.323,-0.212c0.18,-1.279 0.912,-1.591 1.908,-1.45c1.246,-1.164 0.479,-3.438 1.263,-4.771c0.499,-0.847 2.603,-0.71 3.102,-1.61c0.717,-1.296 1.512,-2.639 2.594,-4.009c0.245,-1.66 1.497,-1.859 2.386,-2.586c0.227,-0.272 0.454,-0.546 0.68,-0.82c1.454,-1.407 2.918,-1.853 4.387,-1.805c0.658,0.021 0.269,2.083 0.929,2.26c0.517,0.14 2.085,-1.628 2.603,-1.439c0.728,0.266 1.311,1.562 2.039,1.829c1.081,1.254 1.507,2.044 1.607,2.663c1.185,-1.118 2.371,-2.236 3.557,-3.355c-0.046,-0.169 -0.112,-0.33 -0.151,-0.503c1.61,-3.349 2.988,1.422 4.537,0.206c0.234,0.311 0.469,0.62 0.706,0.931c1.03,4.133 4.59,4 6.708,6.301c2.349,1.559 4.699,3.118 7.046,4.677c0.292,0.499 0.584,0.995 0.875,1.493c1.328,0.206 2.568,1.554 4.001,0.04c2.433,-2.568 1.871,0.821 2.396,2.029c-0.034,0.631 -0.066,1.262 -0.1,1.893c0.037,0.288 0.067,0.578 0.09,0.868c0.686,0.925 1.372,1.85 2.059,2.775c0.429,0.347 0.635,0.876 0.79,1.45c0.091,-0.506 0.308,-1.002 0.764,-1.483c0.771,-0.822 1.542,-1.642 2.313,-2.462l-0.267,-0.499c0.283,-0.242 0.566,-0.483 0.847,-0.724c2.811,-2.495 4.066,-0.08 5.23,2.623c0.212,0.315 0.424,0.63 0.635,0.945l-0.02,2.904c0.022,0.008 0.046,-0.005 0.07,0.005c0.752,0.48 1.59,1.172 2.382,0.612c2.364,-1.671 4.584,-0.64 6.837,0.302c3.459,1.166 7.481,-0.283 10.37,3.535c0.257,0.179 0.516,0.358 0.774,0.537c0.068,-0.128 0.128,-0.288 0.197,-0.414c0.068,-0.086 0.135,-0.175 0.205,-0.252c0.107,-0.119 0.216,-0.185 0.325,-0.277c0.173,-0.059 0.348,-0.087 0.522,-0.073c0.021,0.014 0.043,0.02 0.063,0.035c0.045,0.045 0.118,0.108 0.209,0.182c0.107,0.158 0.211,0.331 0.312,0.514c0.022,0.049 0.096,0.196 0.238,0.458c0.203,0.512 0.391,1.078 0.574,1.66c0.991,0.687 1.982,1.374 2.973,2.062c0.002,-0 0.004,0.001 0.006,0.001c3.412,0.345 6.77,0.902 9.596,3.674c0.816,1.206 1.633,2.41 2.449,3.617c0.742,-1.433 1.865,-1.666 3.096,-1.564c1.717,-0.256 0.552,-3.572 2.442,-3.643l0.197,0.1l0.211,-0.016c2.712,2.132 5.805,1.142 8.711,1.685c0.908,1.38 1.818,2.759 2.727,4.138c1.019,-1.445 1.955,-3.206 3.836,-1.449c4.758,1.022 9.494,2.318 14.373,1.964c1.425,1.365 3.518,2.193 2.758,5.321c2.005,0.166 4.082,-0.325 5.952,1.079c0.287,0.237 0.573,0.474 0.859,0.71c1.058,1.163 2.543,-0.634 3.561,0.803c0.48,0.643 0.857,1.217 1.181,1.758c4.992,-2.502 9.251,2.469 13.95,2.745c0.208,-0.289 0.416,-0.576 0.623,-0.863c0,-0.001 0.002,0 0.003,-0.001c2.97,-2.939 4.768,-0.247 6.863,2.016c1.849,1.998 1.961,6.509 5.477,6.085c0.068,0.139 0.135,0.278 0.202,0.418c2.469,0.409 4.246,0.689 5.632,4.675c1.785,5.134 5.309,0.23 8.088,-0.245l-0.023,-0.036c2.22,-1.225 6.593,-1.49 6.571,-0.931c-0.207,5.462 2.758,3.01 4.076,2.563c0.534,-1.791 1.146,-3.258 2.004,-3.706c1.292,-7.142 -0.934,-10.278 -1.846,-14.567c-0.372,-1.75 -0.597,0.993 -0.44,2.322c0.312,2.639 0.49,5.136 -0.265,7.646c-0.516,-3.569 -1.004,-6.936 -1.491,-10.303c0.516,-4.016 -1.913,-10.274 1.133,-12.729c0.885,-0.714 0.738,-2.52 1.544,3.573c0.507,3.248 1.015,6.495 1.523,9.742c0.224,-0.771 0.45,-1.542 0.676,-2.312c1.705,-4.52 3.121,-1.053 4.566,1.642c0.351,0.313 0.7,0.625 1.051,0.937c1.375,1.489 2.055,5.234 2.874,8.548c0.481,-0.318 1.087,-0.357 1.9,0.067c0.002,-0.857 0.003,-2.013 0.007,-3.761c0.81,8.406 2.042,6.95 3.313,5.22c-0.059,-1.726 -1.094,-2.025 -0.679,-4.442c0.225,-5.131 1.204,-8.304 2.668,-10.227c0.267,-1.805 0.179,-3.299 -0.385,-4.379c-2.289,-1.889 -0.058,-7.223 -0.894,-10.779c0.866,2.29 1.615,4.061 1.814,-0.95c0.165,-4.144 0.886,-3.38 1.683,-1.805c0.664,-3.736 1.115,-7.449 -0.12,-10.981c0.108,-0.433 0.217,-0.866 0.324,-1.298c0.488,-3.088 1.365,-2.429 2.192,-2.269c0.279,0.063 0.518,0.468 0.754,0.898c0.643,0.761 0.697,4.503 1.764,3.261c0.942,-1.097 0.905,-3.689 1.103,-6.024c0.176,-2.082 0.287,-4.305 0.888,-5.76c0.554,-1.491 1.111,-1.579 1.675,-0.071c0.056,0.103 0.108,0.212 0.163,0.315c0.027,-0.04 0.046,-0.1 0.077,-0.127c0.698,0.278 1.397,0.555 2.095,0.832c-0.129,-0.529 -0.256,-1.06 -0.384,-1.59c1.275,-0.365 2.551,-0.997 3.824,-0.938c0.392,0.019 0.774,1.928 1.16,2.97c0.467,-2.038 0.958,-4.031 1.394,-6.134c0.228,-1.104 0.617,-3.049 0.501,-3.496c-0.517,-1.981 -0.86,0.355 -1.277,0.993c-0.847,-2.588 -0.839,-5.456 -0.057,-7.938c1.218,-3.863 1.854,-3.795 3.246,-0.375c0.532,-0.023 1.064,-0.046 1.597,-0.068c0.026,-0.262 0.046,-0.528 0.058,-0.799c-0.811,-6.606 1.683,-9.366 1.752,-14.949c0.851,-5.742 1.869,0.774 2.782,-0.38l0.002,0.002c1.561,-5.057 1.727,1.431 2.489,2.986c0.468,0.307 0.937,0.615 1.405,0.921c0.345,-0.407 0.691,-0.814 1.035,-1.22c1.545,3.452 2.06,6.505 0.049,10.584c-1.474,2.992 0.745,4.699 0.42,8.207c-0.564,-1.009 -1.149,-2.054 -1.734,-3.1c0.163,5.864 3.073,3.927 2.995,10.47c0.025,1.49 0.051,2.978 0.076,4.468c2.236,-5.229 2.041,-13.566 -0.385,-17.083c-0.193,-0.28 -0.302,-1.133 -0.451,-1.719c0.525,-1.101 1.012,-2.48 1.583,-3.227c0.623,-0.814 1.403,-0.594 1.622,1.702c0.606,6.352 1.094,4.496 2.354,1.067c1.066,-2.903 2.856,-5.749 4.162,0.474c-0.011,1.448 -0.023,2.897 -0.035,4.344c0.157,0.823 0.335,2.387 0.469,2.351c0.929,-0.251 0.791,-2.989 1.026,-4.869c0.817,-3.836 2.121,-4.82 3.003,-1.779c0.984,3.392 -0.35,5.065 -1.151,6.743c-0.165,0.348 -0.186,1.388 -0.273,2.109c0.634,0.715 1.329,2.346 1.89,1.974c1.755,-1.166 3.532,0.503 3.701,5.332c0.244,6.951 -2.373,8.514 -3.78,11.926c-0.861,2.088 -0.202,-6.59 -1.785,-5.35c-2.003,0.779 -0.673,6.205 -1.258,8.961c1.632,5.849 4.007,2.874 5.96,4.937c0.29,0.306 0.635,0.064 0.948,0.212c0.033,0.015 0.066,1.385 0.023,1.433c-2.313,2.525 -1.697,18.183 -5.773,12.849c-0.104,-0.135 -0.467,0.612 -0.462,0.905c0.007,0.382 0.03,0.761 0.039,1.144c0.912,0.646 1.823,1.291 2.734,1.936c1.442,-2.99 3.045,-4.337 5.038,-1.793c-0.242,0.98 -0.572,2.31 -0.902,3.639c2.137,2.256 3.18,-2.069 4.15,-6.842c0.778,-1.645 1.556,-3.291 2.333,-4.937c0.578,-0.793 1.156,-1.585 1.734,-2.376c0.53,-0.688 1.136,-1.519 1.526,0.317c0.42,1.976 -0.127,3.222 -0.514,4.719c-0.615,2.377 -1.214,4.625 -2.202,5.408c-0.103,0.071 -0.202,0.062 -0.298,0.021c0.56,3.157 1.839,-3.565 2.337,0.436c0.002,0.008 0.005,0.015 0.007,0.022c0.001,-0.002 0.002,-0.004 0.002,-0.005c-0,0 -0.008,-0.015 -0.009,-0.017c0.476,-6.203 1.656,-10.689 3.735,-9.368c2.001,1.272 2.972,5.552 1.905,12.575c-0.021,0.139 -0.031,0.311 -0.041,0.486c0.018,0.168 0.013,0.347 -0.011,0.537c0.004,1.62 0.324,3.992 0.682,4.751c0.783,1.655 1.907,3.305 2.728,2.719c0.77,-0.549 0.238,-4.193 0.095,-6.394c-0.205,-3.168 -0.476,-6.8 0.613,-8.231c0.751,-0.986 2.17,-0.99 2.588,0.51c0.659,2.366 -0.7,3.745 -1.035,5.853c-0.257,1.612 -1.341,2.731 -0.727,4.659c0.566,1.778 0.807,-1.845 1.304,-2.366c1.506,-1.579 2.777,-13.932 4.621,-1.083c-0.795,2.803 -1.888,4.866 -2.048,8.921c0.587,-0.156 1.193,-0.154 1.801,-0.009c0.984,-1.067 1.666,-6.975 2.913,-2.632c0.583,-1.916 1.366,-2.776 2.112,-3.832c0.027,-0.017 0.054,-0.021 0.081,-0.035c-0.034,-0.536 -0.027,-1.048 0.03,-1.472c0.402,-2.996 1.039,-1.727 1.696,-0.912c-0.16,-4.337 -1.34,-6.236 -2.334,-8.722c-0.816,-2.043 -1.068,-4.421 0.133,-6.26c1.898,-2.025 2.584,5.714 4.485,5.213c1.612,-0.425 2.28,-0.933 1.741,-6.407c-0.167,-1.698 -0.291,-4.479 0.49,-5.205c0.682,-0.635 1.173,1.097 1.441,3.117c0.222,1.67 -0.316,4.502 0.645,4.978c0.939,0.465 1.215,-2.304 1.662,-4.126c1.025,0.494 0.746,1.836 0.262,3.53c-0.124,0.43 -0.23,0.863 -0.341,1.295c0.896,0.371 1.781,0.882 2.668,1.35c0.155,-0.396 0.334,-0.746 0.486,-0.919c0.502,-0.572 0.513,0.442 0.564,1.428c0.429,0.19 0.86,0.347 1.294,0.453c0.011,-0.037 0.022,-0.077 0.032,-0.111c0.003,0.037 0.006,0.081 0.009,0.12c0.177,0.041 0.354,0.085 0.532,0.107c-0.105,0.805 -0.232,1.529 -0.385,2.162c0.114,1.893 0.227,3.796 0.362,3.811c0.929,0.108 0.348,-3.178 0.744,-4.584c0.075,-0.266 0.224,-0.726 0.248,-0.675c3.715,7.93 5.657,-6.251 9.076,-7.472c-1.881,8.614 -5.335,9.236 -6.995,16.709c0.05,0.23 0.099,0.463 0.144,0.75c0.041,0.447 0.068,0.912 0.082,1.364c0.005,0.251 0.013,0.495 0.028,0.719c0.23,0.124 0.404,0.375 0.435,0.953c0.016,-0.005 0.028,-0.001 0.044,-0.008c0.663,-0.516 1.31,-0.892 1.794,1.172c0.14,1.014 0.217,1.942 0.255,2.826c2.051,1.36 4.023,-3.234 6.072,-1.942c1.798,1.083 3.595,2.164 5.393,3.245c0.036,-0.225 0.076,-0.441 0.107,-0.683c1.356,-3.642 2.213,-3.886 3.586,-0.702c0.467,1.084 1.001,2.026 1.365,0.545c0.973,-3.963 2.36,-3.938 3.705,-4.545c0.641,0.186 1.349,1.283 1.645,-1.911c0.104,-1.135 0.481,-1.993 0.941,-1.945c0.245,0.28 0.456,0.623 0.318,1.635c-0.089,2.622 -0.676,5.793 0.262,7.598c1.075,2.066 1.312,-2.566 2.265,-3.966c-0.49,6.705 0.592,6.28 1.949,5.233c0.927,-0.714 2.136,-5.019 2.695,-1.583c0.571,3.51 -0.459,7.522 -1.705,9.621c1.416,4.805 2.677,0.554 3.953,-0.836c0.368,-0.401 0.601,-2.035 0.896,-3.104c0.341,-2.605 1.07,-2.437 1.767,-2.395c0.619,0.037 1.202,-0.649 1.809,-0.824c-0.128,-1.807 0.254,-3.143 0.832,-4.013c0.871,-1.309 1.576,0.278 2.134,2.267c0.327,1.166 0.183,3.318 0.778,4.042c0.568,-1.529 1.137,-3.06 1.705,-4.59c0.552,1.987 1.281,2.345 2.046,1.998c0.857,-0.39 1.452,0.511 1.803,3.008c0.283,1.738 0.567,3.477 0.85,5.215c-0.902,0.279 -1.858,0.06 -2.692,0.963c-1.065,1.152 -0.409,4.936 -0.804,7.256c0.199,0.295 0.458,1.008 0.585,0.821c1.451,-2.133 2.882,-4.404 4.318,-6.639l-0.031,-0.313c1.375,0.405 1.083,3.09 0.78,5.737c-0.077,0.68 -0.178,1.357 -0.268,2.034c0.141,-0.046 0.282,-0.091 0.422,-0.138c1.787,-2.179 4.168,2.71 5.846,-0.769c1.782,-0.772 2.788,1.472 4.299,1.753c2.662,2.917 5.32,1.346 7.98,-0.01c0.048,-0.27 0.083,-0.542 0.108,-0.817c1.041,-4.948 2.932,-2.822 5.398,-1.584c2.189,1.097 4.905,0.528 7.388,0.694c3.093,2.382 5.636,-0.818 7.964,-2.013c5.412,-2.778 10.374,-2.303 15.532,0.322c0.566,0.288 1.345,-0.09 2.025,-0.159c0.691,-0.818 1.369,-0.856 2.033,0.05c3.747,2.139 7.407,4.271 11.735,2.048c3.3,-1.694 6.788,-2.991 10.305,-0.533c0.662,0.298 1.323,0.597 1.986,0.895c1.53,0.636 3.048,1.158 4.296,-0.758c1.499,0.834 2.999,1.668 4.499,2.502l1.242,0.412c0.443,0.214 0.885,0.426 1.328,0.639c1.784,-1.25 1.492,-3.382 1.451,-5.407c-2.013,-7.13 1.841,-9.588 5.951,-11.84c2.741,-1.408 5.111,2.552 8.01,0.726c-3.877,-6.223 1.415,-3.785 2.992,-4.965c3.822,-1.948 7.626,0.191 11.443,0.181c2.386,-0.006 2.961,-1.15 3.258,-3.797c0.448,-3.984 1.277,-7.901 1.944,-11.845c-0.275,-0.398 -0.551,-0.797 -0.825,-1.195c-0.039,-1.522 0.131,-2.931 0.953,-4.182c1.727,-2.63 1.067,-4.334 -1.411,-5.158c-0.853,-0.284 -2.373,0.123 -2.125,-1.505c0.291,-1.923 1.542,-0.087 2.352,-0.289c1.031,-0.258 2.069,-0.486 3.104,-0.729c1.731,-0.413 4.247,5.258 5.215,-1.063l0,-0.002c-0.157,-1.436 -0.132,-2.763 1.245,-3.273c1.181,1.752 2.553,2.651 4.371,1.547c2.797,-0.657 5.379,-1.596 5.175,-6.212c2.265,-0 3.318,1.613 3.59,4.267c0.269,0.202 0.537,0.404 0.806,0.606c0.462,0.738 1.656,0.029 2.342,0.325c0.037,-0.032 0.077,-0.051 0.114,-0.086c3.203,0.303 6.24,2.222 9.545,1.567c1.904,0.1 4.008,1.308 5.211,-1.971c0.338,-0.922 1.403,-1.009 2.222,-0.306c0.967,-0.253 1.935,-0.508 2.902,-0.761c1.823,-1.104 3.62,-1.279 5.362,0.245c0.239,0.276 0.413,0.545 0.572,0.812c0.422,-0.061 0.844,-0.123 1.266,-0.184c2.885,2.855 5.148,-2.948 7.974,-0.904c2.23,0.863 4.24,2.232 6.877,1.323c2.042,-0.703 2.802,1.592 2.517,4.091l0.013,0.024c1.62,0.606 3.036,-0.124 4.419,-1.068c0.001,-0 -0.03,0.076 -0.03,0.076c0.361,0.804 0.783,1.712 1.558,1.707c4.025,-0.028 7.871,2.091 11.928,1.543c0.887,-0.12 1.272,0.632 1.715,1.338c0.477,0.571 0.953,1.143 1.429,1.713c0.239,0.351 0.478,0.701 0.717,1.052c2.775,-0.821 5.854,3.092 8.51,-0.983c0.458,-0.704 1.453,0.447 1.91,1.436c1.171,2.535 2.881,2.879 4.421,0.903c1.611,-2.067 1.267,-3.429 -1.302,-2.784c0.046,-0.98 -0.111,-2.07 0.176,-2.922c0.785,-2.336 2.372,-2.013 3.976,-1.639c1.617,0.376 2.684,3.532 4.766,1.492c0.16,-0.195 0.32,-0.389 0.48,-0.584c-0.021,-0.016 -0.043,-0.015 -0.065,-0.031c-0.236,-0.334 -0.402,-0.715 -0.495,-1.146c0.433,-3.501 2.52,-4.033 4.777,-4.084c1.303,-0.03 2.584,0.76 3.913,0.25c0.069,-0.04 0.144,-0.057 0.213,-0.093c0.299,-0.875 0.661,-1.55 1.138,-1.884c0.528,-0.369 0.877,0.05 1.142,0.871c0.687,-0.388 1.341,-0.861 1.956,-1.438c0.294,-0.192 0.606,-0.305 0.936,-0.332c1.847,0.438 1.621,2.133 1.426,3.783c-0.148,1.251 0.009,2.083 0.501,2.467c1.4,-3.202 3.027,-7.448 3.819,-8.022c2.388,-1.73 4.024,-1.867 6.071,-3.392c0.882,-0.657 1.3,0.043 1.742,1.631c0.442,1.589 0.312,4.444 -0.135,4.836c-1.095,0.964 -1.692,2.333 -2.025,4.268c0.913,0.201 1.82,0.656 2.718,1.544c0.339,0.337 0.708,0.437 1.084,0.417c0.162,-0.709 0.32,-1.512 0.472,-2.449c0.484,-2.967 1.558,1.053 2.499,0.398c2.879,-1.999 3.571,-11.99 6.347,-15.424c1.273,-1.573 2.678,0.819 3.7,-4.007c0.801,-3.782 2.408,-3.555 3.588,-1.365c1.18,2.189 0.762,4.237 0.736,8.482c-0.027,4.247 0.143,7.161 2.154,4.94c2.661,-2.938 5.692,0.473 8.536,-4.741c3.729,-6.836 7.353,-0.75 11.441,0.51c1.599,0.492 2.958,2.55 4.157,-2.111c0.191,-0.739 0.852,-1.795 1.037,-1.529c3.228,4.632 5.848,-1.544 9.09,-0.017c0.596,0.281 1.251,2.711 1.269,4.397c0.017,1.54 0.029,3.05 0.017,4.527c0.341,0.072 0.682,0.131 1.019,0.162c1.271,-12.036 4.228,-14.521 8.172,-7.406c2.446,4.413 4.784,10.415 7.875,10.411c0.392,-0.002 1.012,1.006 1.177,1.929c1.495,8.311 3.609,5.976 6.112,8.192c1.672,1.482 2.554,2.486 3.821,6.701c0.138,0.075 0.278,0.164 0.42,0.267c2.178,2.862 4.334,5.341 7.85,2.745c1.065,-0.787 2.489,0.325 3.666,1.018c1.054,1.632 0.443,4.226 2.029,5.532c0.295,0.085 0.598,0.108 0.905,0.045c1.624,-1.15 3.381,-0.682 5.104,-0.678c0.042,0.008 0.079,0.026 0.12,0.036c0.895,-0.59 1.799,-1.037 2.767,-0.935c0.919,-0.56 1.964,-0.718 2.891,-1.246c1.066,-0.134 2.175,0.173 3.194,-0.433c2.683,-1.595 4.545,-0.522 5.741,2.761c0.895,0.077 1.789,0.154 2.684,0.231c0.105,-0.91 0.247,-1.787 0.539,-2.12c0.738,-0.836 3.82,3.368 4.988,3.116c2.13,2.551 3.475,5.761 5.277,8.678c0.624,0.584 1.231,1.21 1.88,1.727c0.096,-0.216 0.171,-0.578 0.204,-1.17c0.127,-2.291 -1.224,-4.537 0.441,-4.867c1.665,-0.331 3.253,-2.006 4.057,4.505c0.145,1.163 0.399,1.72 0.638,1.329c0.101,-1.139 0.21,-2.271 0.643,-3.161c1.363,-7.173 3.498,-8.02 6.103,-9.983c0.922,-0.695 1.52,-1.789 2.421,-3.337c0.9,-1.547 2.573,-0.307 2.432,3.011c-0.014,0.322 -0.021,0.622 -0.03,0.928c0.105,-0.072 0.213,-0.122 0.319,-0.092c0.345,0.098 1.008,-1.407 1.37,-0.443c0.352,0.945 0.534,2.703 1.303,3.326c2.322,1.881 4.883,1.402 7.287,1.25c0.858,-0.053 1.671,-1.903 2.151,-2.969c0.479,-1.066 0.431,-0.545 0.798,-0.737c0.369,-0.191 0.716,-0.258 1.033,0.284c1.035,1.777 2.105,1.305 2.992,-0.394c0.886,-1.698 1.584,-2.53 2.188,-0.054c0.258,1.06 0.25,2.217 0.129,3.311c0.054,-0.038 0.109,-0.095 0.171,-0.219c0.369,-0.739 0.759,-0.74 1.088,-1.677c0.031,2.682 -0.077,5.374 -0.128,7.982c0.032,0.097 0.063,0.205 0.095,0.308c2.312,-0.409 4.696,-2.018 6.954,-1.802c0.612,0.059 1.823,-0.599 1.823,-0.92c-0.026,-6.208 2.073,-4.494 4.432,-1.97c2.312,3.51 4.937,4.741 7.22,3.756c0.673,-0.815 1.449,-1.941 2.482,-3.447c0.357,-0.514 0.747,-0.88 1.31,-0.468c1.469,-0.273 2.937,-0.545 4.406,-0.818c0.784,-0.916 1.986,-0.955 2.694,-2.029c0.199,-0.208 0.416,-0.328 0.625,-0.485c0.14,-0.347 0.28,-0.694 0.42,-1.042c3.324,-0.666 6.649,-1.33 9.973,-1.996c0.484,-0.011 0.966,-0.022 1.45,-0.033c0.387,-0.066 0.773,-0.131 1.159,-0.198c0.393,-0.818 0.787,-1.638 1.18,-2.455c2.519,-0.865 5.293,0.987 7.693,-1.148c1.243,-1.437 2.588,-2.622 4.345,-2.792c0.068,0.129 0.136,0.259 0.204,0.389c3.104,0.84 6.208,1.676 9.311,2.515c0.242,-0.589 0.483,-1.177 0.724,-1.766c0.255,-0.024 0.509,-0.049 0.763,-0.075c1.632,1.204 3.284,2.551 4.314,-0.886c0.221,-0.296 0.495,-0.444 0.813,-0.468c1.125,0.209 2.077,-0.608 3.132,-0.843c0.841,-0.057 1.674,-0.092 2.501,0.104c0.371,0.229 0.78,0.357 1.175,0.525c0.509,-0.495 0.863,-1.167 0.957,-2.137c0.153,-0.083 0.255,-0.262 0.362,-0.43c-0.009,-0.005 -0.018,-0.006 -0.026,-0.01c-1.719,-4.422 0.937,-5.504 3.283,-6.81c1.62,-1.051 3.058,-2.899 5.139,-2.171c1.422,0.497 1.655,-1.35 2.535,-1.897c2.507,-1.094 4.862,-1.946 7.297,0.701c2.04,2.217 3.171,0.311 3.829,-2.158c0.661,-0.64 1.095,-1.545 1.701,-2.263c1.423,-1.68 2.54,-2.817 3.62,0.548c0.552,1.72 1.495,3.409 2.863,4.485c0.952,0.269 2.087,-0.47 2.854,0.824c0.234,0.033 0.45,0.127 0.65,0.284c1.429,2.984 3.185,5.393 5.297,7.154c1.433,-1.401 6.458,4.791 6.458,0.362c0.347,-0.436 -0.048,-1.234 0.399,-1.51c0.313,-0.105 0.63,-0.181 0.951,-0.233c2.23,-0.101 4.387,-1.14 6.653,-0.839c2.248,0.762 4.317,0.655 5.905,-1.897c0.726,-0.508 1.484,-0.725 2.306,-0.567c0.878,0.522 1.948,0.413 2.859,0.827c0.244,-0.085 0.485,-0.177 0.699,-0.316c0.968,-0.517 1.954,-0.776 2.997,-0.425c0.339,0.041 0.671,0.126 0.993,0.259c0.068,0.015 0.135,0.006 0.204,0.02c-0.598,0.27 -0.92,1.124 -0.83,2.07c2.241,0.534 4.457,0.292 6.712,0.202c2.359,-0.093 4.635,-3.974 6.618,-1.188c2.352,3.306 3.228,3.217 3.508,-1.491c0.87,1.188 1.418,1.929 1.911,2.291l0.187,0.103l0.092,0.042l0.092,0.035l0.093,0.029l0.092,0.022l0.093,0.016l0.094,0.009l0.095,0.003l0.096,-0.003l0.098,-0.009l0.101,-0.016c0.068,-0.016 0.137,-0.033 0.208,-0.049c0.071,-0.024 0.144,-0.047 0.22,-0.073c0.075,-0.031 0.153,-0.062 0.234,-0.096c0.079,-0.038 0.163,-0.078 0.25,-0.12c0.169,-0.095 0.355,-0.197 0.558,-0.31c0.395,-0.247 0.861,-0.539 1.414,-0.885c-0.04,0.935 -0.079,1.847 -0.117,2.76l4.019,-2.291l0.01,-0.318l-0.005,-0.317l-0.018,-0.317l-0.031,-0.316l-0.071,-0.219l-0.082,-0.213l-0.17,-0.426l0.732,0.037l0.539,-0.112l0.536,-0.076l0.535,-0.044l0.533,-0.015l0.531,0.01l0.53,0.032l0.529,0.05l0.527,0.065l0.717,0.113Zm-2188.12,-35.418c0.001,-0.01 0.002,-0.007 -0,-0Zm540.426,49.89c0.426,-0.597 0.847,-0.659 1.26,0.201c-0.062,-0.709 -0.116,-1.519 -0.166,-2.434c-0.105,-0.084 -0.209,-0.161 -0.309,-0.21c-0.321,-0.44 -0.582,-0.974 -0.771,-1.625c0.223,1.463 0.149,2.77 -0.014,4.068Zm15.738,17.019c1.734,-1.064 2.113,-2.555 1.657,-7.288c-0.501,2.685 -1.541,4.043 -2.055,6.821c-0.07,0.379 -0.135,0.742 -0.201,1.105c0.17,-0.278 0.367,-0.495 0.599,-0.638Zm-2.316,-14.477c0.495,0.395 0.858,-0.419 1.19,-1.522c-0.389,0.565 -0.788,1.056 -1.19,1.522Zm-13.647,-7.809c0.003,0.014 0.005,0.026 0.009,0.041c-0.099,-0.743 -0.122,-1.606 -0.057,-2.61c-0.139,0.875 -0.135,1.85 0.048,2.569Zm-22.416,15.253c0.247,-1.298 0.523,-2.244 0.836,-2.609c-0.3,-0.12 -0.615,0.135 -0.9,0.509c-0.53,0.694 -0.19,2.25 -0.137,3.525c0.056,-0.493 0.115,-0.98 0.201,-1.425Zm54.563,-6.33c0.067,-0.048 0.139,-0.089 0.212,-0.123c-0.011,0.004 -0.02,-0 -0.031,0.004c-0.066,0.027 -0.122,0.075 -0.181,0.119Zm865.082,-53.96c0.017,-0.234 0.044,-0.474 0.079,-0.722c-0.024,-0.009 -0.047,-0.021 -0.069,-0.039c-0.01,0.262 -0.016,0.519 -0.01,0.761Zm-858.524,43.668c0.94,0.101 1.972,-1.373 2.789,-4.432c-0.927,1.057 -1.637,1.877 -2.248,3.416c-0.181,0.455 -0.361,0.801 -0.541,1.016Zm824.126,20.899c0.001,-0.183 0.001,-0.383 0.001,-0.605l-0.131,0.206c0.038,0.142 0.087,0.266 0.13,0.399Zm-1505.86,-3.803c-0.008,-0.018 -0.016,-0.032 -0.025,-0.052c0.252,-2.082 0.448,-4.046 0.526,-6.003c-0.617,0.848 -1.222,1.628 -1.465,2.679c-0.284,1.223 -1.425,2.411 -0.312,3.653c0.05,0.056 0.1,0.087 0.15,0.133c0.365,-0.223 0.734,-0.269 1.103,-0.398c0.008,-0.002 0.016,-0.008 0.023,-0.012Zm1521.87,-21.526c0.033,0.035 0.067,0.048 0.101,0.051c-0.03,-0.049 -0.061,-0.091 -0.091,-0.136c-0.005,0.028 -0.009,0.049 -0.014,0.077c0.001,0.002 0.002,0.006 0.004,0.008Zm-1413.62,11.54c0.096,-0.007 0.193,-0.012 0.29,-0.019c-0.359,-0.896 -0.76,-1.652 -1.152,-2.029c-0.072,-0.068 -0.141,-0.18 -0.209,-0.3c-0.017,0.032 -0.035,0.053 -0.053,0.083c0.39,0.636 0.77,1.408 1.124,2.265Zm605.384,-30.832c0.922,-0.123 1.399,-1.648 1.8,-3.381c-0.514,1.222 -1.396,0.917 -1.8,3.381Z"/></svg>