<?xml version="1.0" encoding="UTF-8" standalone="no"?><!DOCTYPE svg PUBLIC "-//W3C//DTD SVG 1.1//EN" "http://www.w3.org/Graphics/SVG/1.1/DTD/svg11.dtd"><svg width="100%" height="100%" viewBox="0 0 2500 150" version="1.1" xmlns="http://www.w3.org/2000/svg" xmlns:xlink="http://www.w3.org/1999/xlink" xml:space="preserve" xmlns:serif="http://www.serif.com/" style="fill-rule:evenodd;clip-rule:evenodd;stroke-linejoin:round;stroke-miterlimit:2;"><path d="M0,77l0,-77l846.075,0c-0.719,0.107 -1.452,0.404 -2.129,0.487c-0.027,0.196 -0.068,0.343 -0.091,0.552c-0.817,7.525 1.687,8.54 3.204,11.096c0.458,0.771 0.881,1.798 1.28,2.854c0.821,2.169 2.567,3.223 1.748,7.909c-0.191,1.09 -0.438,1.772 -0.708,2.205c0.072,3.588 -0.624,7.151 -2.103,7.032c-0.666,-0.054 -1.382,-0.214 -2.104,-0.257c0.059,0.528 0.101,1.099 0.148,1.661c-0.46,0.149 -0.846,0.746 -1.179,1.674c-0.097,-0.029 -0.179,-0.057 -0.286,-0.086c-0.669,-0.672 -1.406,-1.574 -2.067,-1.45c-0.619,1.023 -1.304,-1.689 -1.897,-0.499c-0.57,1.86 -0.994,7.818 -1.51,9.747c-2.502,9.361 -5.351,5.903 -7.377,-0.205c-0.094,-0.282 -0.177,-0.479 -0.264,-0.7c-0.54,0.625 -1.068,1.28 -1.68,1.37c-0.243,0.037 -0.49,-0.089 -0.736,-0.17c-0.923,2.58 -2.127,3.318 -3.098,1.951c-0.291,-0.411 -0.567,-0.671 -0.835,-0.856c-0.175,0.315 -0.339,0.67 -0.535,0.903c-0.733,0.874 -1.46,0.955 -2.141,0.435c-0.49,0.772 -0.968,1.716 -1.452,2.683c-0.548,1.091 -1.065,2.069 -1.75,2.096c-2.134,0.083 -2.38,0.851 -2.761,8.059c0.047,0.191 0.076,0.376 0.111,0.563c-0.001,0.003 -0.002,0.006 -0.003,0.008c-0.039,-0.195 -0.075,-0.404 -0.12,-0.567c0.012,-4.495 0.625,-8.157 1.695,-11.01c0.782,-2.086 1.616,-3.819 2.518,-4.844c-0.117,-0.328 -0.232,-0.66 -0.34,-1.032c-0.405,-1.393 -0.703,-3.28 -1.307,-3.948c-0.546,-0.604 -1.278,-0.13 -1.832,0.046c-1.253,0.399 -1.957,-2.097 -2.112,-5.089c-1.817,0.438 -2.227,1.331 -2.116,7.388c0.109,5.939 1.242,12.57 -0.544,18.052l-0.059,-8.757c-3.399,4.4 -7.346,5.346 -10.163,13.423c-0.682,-0.492 -1.19,-1.871 -1.475,-3.619c-0.974,-0.241 -1.819,-1.088 -2.407,-2.688c-0.031,0.02 -0.063,0.05 -0.094,0.068c-0.453,0.27 -0.96,0.088 -1.423,-0.439c0.876,1.777 1.744,3.642 2.687,4.813c0.341,0.423 0.471,2.048 0.576,3.288c0.113,1.333 0.406,2.115 0.728,2.827c-0.003,-0.001 -0.006,-0.001 -0.009,-0.002c-0.695,-0.919 -1.455,-0.54 -2.188,-1.29c-0.622,-0.636 -0.957,-0.019 -1.099,1.006c-0.046,-4.969 -1.798,-5.992 -3.094,-8.16c-1.48,-2.477 -2.155,1.273 -3.012,3.989c-1.398,4.425 -3.92,2.432 -4.82,-3.242c-0.539,0.229 -1.062,0.555 -1.572,0.965c0.001,0.547 0.004,1.094 -0.004,1.642c-0.033,2.234 -0.164,3.996 -0.48,5.999c-0.258,1.626 -0.782,2.694 -1.313,3.256c-0.579,0.613 -1.182,0.117 -1.71,-0.643c-0.191,-0.274 -0.384,-0.533 -0.576,-0.799c-0.303,-0.358 -0.611,-0.639 -0.926,-0.848c-0.311,-0.058 -0.622,-0.081 -0.933,0.054c-0.232,0.045 -0.465,0.011 -0.698,-0.178c-0.178,-0.228 -0.355,-0.458 -0.532,-0.684c-0.115,-0.186 -0.217,-0.423 -0.314,-0.678c-0.359,0.65 -0.704,1.176 -1.11,1.432c-0.124,0.078 -0.24,0.072 -0.359,0.098c-0.324,0.325 -0.647,0.684 -0.969,1.04c0.987,1.328 2.02,2.949 3.186,1.514c0.4,-0.492 0.888,-1.873 1.141,0.411c0.219,1.973 -0.284,2.451 -0.756,2.879c-1.172,1.061 -1.601,3.152 -1.496,7.315c0.133,5.223 -1.873,9.79 -3.577,9.246c-1.013,-0.323 -1.896,-2.587 -3.041,-1.24c-1.26,1.48 -1.922,-0.117 -2.182,-4.305c-0.103,-1.651 0.017,-3.269 0.045,-4.907c0.068,-3.928 -0.817,-4.922 -1.803,-5.245c-0.933,-0.306 -1.404,1.288 -1.434,4.187c-0.018,1.866 -0.031,3.983 -0.509,5.089c-1.032,2.389 -0.917,5.556 -0.835,8.859c0.045,1.787 0.285,3.612 -0.028,5.402c-0.208,1.229 -0.504,1.323 -0.815,1.152c-0.172,-1.969 -0.058,-4.236 -2.956,-3.348c-0.723,-0.61 -1.448,-1.222 -2.172,-1.833c-0.241,-0.312 -0.483,-0.624 -0.725,-0.935c-2.746,-2.057 -7.708,0.176 -8.028,-6.573c-0.811,-0.421 -1.702,-0.12 -2.528,-0.435c-1.785,1.094 -4.087,-0.792 -5.494,0.835c-2.484,2.875 -5.132,1.668 -7.804,1.44c-1.242,-0.806 -2.484,-1.611 -3.727,-2.416c-1.147,-0.066 -2.296,-0.13 -3.444,-0.196c-3.477,0.658 -6.748,2.135 -9.999,3.688c-1.062,-0.294 -2.271,-0.19 -3.174,-0.917c-2.455,0.023 -3.855,-1.572 -4.527,-4.463c-0.265,-1.145 -0.43,-2.484 -1.514,-3.033c-0.521,-0.074 -1.028,-0.154 -1.502,-0.171c0.094,0.126 0.192,0.231 0.28,0.391c0.258,0.316 0.516,0.632 0.774,0.948c-4.503,1.225 0.462,4.276 -1.042,6.406c-2.589,-1.16 -5.38,-1.76 -8.252,0.238c-1.093,0.761 -2.799,2.725 -3.809,1.113c-1.076,-1.71 1.495,-2.648 1.781,-4.552c-1.731,-0.733 -2.459,1.496 -3.661,2.028c-1.69,-2.355 4.407,-3.707 0.428,-6.248c0.012,-0.023 0.026,-0.04 0.039,-0.063c-0.026,0.003 -0.052,0.002 -0.079,0.004c0.006,-0.044 0.015,-0.087 0.021,-0.131c-0.156,0.05 -0.315,0.08 -0.467,0.147c-0.014,0.006 -0.026,0.008 -0.039,0.015c-3.05,0.284 -6.06,-0.068 -9.098,-0.619c-2.062,-0.373 -3.208,0.094 -3.509,1.214c-0.413,0.212 -0.763,0.625 -1.016,1.435c-0.161,0.36 -0.315,0.72 -0.447,1.096c-0.164,0.76 -0.37,1.499 -0.419,2.285c-0.027,0.27 -0.109,0.52 -0.214,0.763c-0.92,-0.258 -1.843,-0.516 -2.763,-0.774c-0.212,-0.263 -0.425,-0.526 -0.637,-0.789c-2.2,-2.124 -3.166,-6.308 -6.64,-6.304c-0.174,-0.072 -0.346,-0.141 -0.521,-0.213c-0.391,-0.762 -0.824,-1.51 -1.28,-2.269c-0.176,-0.555 -0.42,-1.391 -0.824,-1.355c-4.189,0.368 -7.173,-4.144 -11.209,-4.321c-0.878,-0.059 -1.757,-0.118 -2.636,-0.177c-0.451,-0.194 -0.848,-0.544 -1.286,-0.759c-2.906,-1.431 -6.74,1.196 -9,-3.268c-0.147,-0.289 -0.83,0.329 -1.254,0.586c-0.895,0.54 -1.268,-0.27 -1.601,-1.103l-0.006,0.043c-2.35,-1.309 -5.307,1.292 -7.403,-1.825c-0.195,-0.291 -0.617,0.036 -0.898,0.398c-1.503,1.931 -2.82,0.977 -3.929,-0.613c-1.087,-1.557 -2.484,-2.305 -3.965,-2.937c-0.439,-0.388 -0.853,-0.555 -1.257,-0.618c-1.989,-3.736 -5.209,-1.196 -8.02,-0.744c0.314,-0.563 0.626,-1.127 0.94,-1.691c-0.402,-0.316 -0.867,-0.552 -1.192,-0.965c-1.107,-1.401 -2.925,-2.992 -3.833,-2.071c-0.885,0.899 -1.365,3.739 1.079,4.991c1.124,0.575 -0.202,1.679 -0.646,1.531c-4.778,-1.587 -2.698,2.055 -2.211,4.489l-0.002,-0c-1.595,-0.303 -3.641,0.849 -3.806,-3.066c-0.057,-1.386 -2.787,-2.348 -3.849,-1.072c-4.194,5.036 -7.952,-1.861 -11.95,-0.337c-1.348,0.514 -1.17,-10.952 -4.092,-0.898c-0.047,0.166 -3.287,-0.354 -3.488,-1.164c-1.512,-6.079 -4.882,-2.077 -7.397,-2.466c-0.558,-1.782 0.306,-5.358 -1.55,-5.109c-2.145,0.288 -2.412,3.61 -2.14,6.306c0.06,0.591 0.022,1.225 0.181,1.768c1.032,3.52 -0.645,2.947 -2.294,2.446c-0.546,-0.54 -1.093,-1.08 -1.639,-1.62c-0.841,-5.351 -3.203,-8.496 -7.754,-8.458c-0.389,1.636 0.818,1.876 1.45,2.616c0.611,0.717 2.022,1.449 -0.044,2.073c-2.837,-0.629 -5.638,-1.931 -8.573,-0.729c-0.053,1.145 -0.104,2.29 -0.158,3.435c-1.119,0.994 -1.226,2.496 -0.33,3.427c3.05,3.159 -0.971,1.82 -1.097,2.903c-1.813,-0.265 -4.129,-5.575 -5.279,0.832c-0.629,0.362 -1.258,0.725 -1.889,1.086c-1.31,1.008 -2.01,-0.175 -2.602,-1.282c-0.654,-1.218 -1.385,-2.04 -2.623,-1.833c-2.232,0.801 -1.952,3.813 -3.092,5.566c-0.23,0.601 -0.394,1.236 -0.559,1.863c-0.201,0.908 -0.252,1.839 -0.207,2.775c0.029,0.227 0.096,0.432 0.15,0.644c-0.201,0.002 -0.407,0.039 -0.62,0.172c-0.009,0.028 -0.028,0.053 -0.04,0.083c0.17,-2.377 -2.616,-3.135 -2.197,-5.648c-0.093,-1.627 -0.853,-2.594 -2.074,-2.545c-1.54,0.061 -0.829,1.746 -1.019,2.769c-0.161,0.861 0.415,2.379 -1.13,2.007c-0.469,-0.318 -0.938,-0.637 -1.407,-0.955c-0.581,2.123 -0.72,4.391 -1.351,6.499c0,-0 0.022,0.032 0.022,0.031c-0.037,0.558 -0.075,1.115 -0.111,1.673c-0.512,1.442 -1.021,2.884 -1.531,4.326c-1.141,1.2 -2.317,0.982 -3.509,0.139c-0.702,-0.487 -1.405,-0.974 -2.107,-1.46c0.26,2.418 -0.563,4.103 -2.23,5.216c-0.246,0.117 -0.485,0.251 -0.722,0.395c-1.572,-1.348 -3.032,-1.768 -4.528,2.632c-0.021,0.064 -0.029,0.167 -0.044,0.251c-0.266,0.092 -0.538,0.164 -0.822,0.209c-0.303,0.252 -0.495,0.604 -0.669,0.976c-0.17,-0.357 -0.404,-0.654 -0.754,-0.837c-0.643,-0.556 -1.286,-1.112 -1.929,-1.668c-0.106,-5.421 -0.643,-5.54 -2.586,-2.666c-0.966,1.427 -1.739,-0.202 -2.279,-2.189c-0.253,-0.93 -0.316,-1.962 -0.367,-2.92c0.551,0.917 1.225,2.121 1.522,2.398c0.454,0.422 1.073,2.256 1.272,1.764c0.18,-0.449 0.21,-2.188 0.048,-3.759c-0.937,-9.03 -4.539,-13.14 -7.343,-11.256c-0.475,0.319 -1.071,1.703 -1.256,1.167c-0.269,-0.78 -0.096,-4.205 0.028,-5.453c0.123,-1.247 1.055,-3.032 0.723,-4.207c-0.333,-1.176 -1.089,-2.257 -1.451,-2.164c-0.304,0.078 -0.588,2.047 -0.811,3.225c-0.004,0.023 -0.009,0.041 -0.013,0.064c0,-0.064 0.001,-0.121 0.001,-0.187c-3.692,3.891 -7.088,2.632 -10.847,0.508c-2.71,-1.532 -5.209,-2.87 -7.951,-1.458c-0,0.019 0.001,0.036 0.001,0.055c-0.114,-0.109 -0.284,-0.103 -0.36,0.125c-0.002,0.008 -0.003,0.017 -0.006,0.025c-0.003,-0.012 -0.006,-0.026 -0.009,-0.039c-1.086,-4.376 -1.691,-1.935 -3.422,-2.647c-1.73,-0.713 -3.592,5.989 -4.57,-2.472c-0.027,-0.231 -0.579,-0.697 -0.637,-0.168c-0.058,0.529 -0.144,1.724 -0.104,2.798c0.166,4.37 1.078,7.469 0.04,11.593c0.012,0.071 0.033,0.136 0.048,0.206c-0.015,0.066 -0.03,0.124 -0.045,0.198c-0.451,2.334 -0.932,8.741 -1.363,11.834c-0.158,-3.889 0.03,-6.662 -1.232,-9.183c-1.262,-2.522 -1.606,-8.263 -0.56,-11.419c1.046,-3.157 0.939,-3.708 0.654,-7.406c-1.789,-0.656 -2.613,4.231 -4.328,4.694c-0.001,-0.007 -0.002,-0.012 -0.003,-0.02c-1.194,-0.354 -1.615,-1.852 -1.472,-5.569c0.056,-1.467 0.294,-2.72 -0.503,-2.938c-0.798,-0.219 -2.314,-0.261 -3.301,0.16c-0.061,0.027 -0.257,1.978 -0.109,2.728c0.148,0.751 0.532,0.174 0.685,1.611c0.154,1.437 -0.23,3.025 -0.897,2.344c-0.668,-0.681 -1.117,-2.607 -1.072,-4.486c0.162,-6.743 -0.921,-4.809 -1.973,-2.774c-1.052,2.036 -1.275,3.396 -2.133,5.473c-0.088,0.213 -0.059,0.044 -0.275,0.288c-0.215,0.245 -0.191,0.59 -0.697,0.68c-0.507,0.09 -1.536,0.861 -1.769,3.352c-0.231,2.491 0.23,4.463 0.787,5.847c0.556,1.385 0.596,2.87 1.47,1.86c0.162,-0.187 0.324,-0.42 0.487,-0.656c0.571,1.77 1.021,3.621 1.348,5.867c-0.036,0.053 -0.071,0.103 -0.11,0.159c-1.218,1.757 -1.987,3.312 -3.095,-0.141c-0.332,-1.031 -0.882,-1.163 -1.304,-0.626c-1.073,1.368 -1.542,-0.262 -2.109,-2.867c-0.568,-2.605 -1.058,-5.654 -2.157,-5.384c-0.617,0.152 -0.823,2.555 -0.627,4.258c0.195,1.7 0.132,4.568 0.226,6.167c0.094,1.597 0.273,0.758 0.445,2.297c0.171,1.54 0.384,3.023 -0.325,4.844c-0.708,1.822 -1.819,4.937 -2.949,5.464c-0.22,0.103 -0.46,0.063 -0.692,0.756c-0.232,0.694 -0.294,1.519 -0.507,2.86c-0.024,0.144 -0.05,0.307 -0.076,0.474c-1.532,3.715 -3.116,6.849 -4.263,11.677c-0.383,-0.086 -0.779,-0.192 -1.191,-0.315c0.414,-2.694 1.038,-5.06 1.49,-7.723c0.686,-4.039 0.416,-5.94 -1.129,-6.929c-1.545,-0.989 -3.482,1.614 -5.14,1.615c-0.148,-0 -0.267,0.22 -0.414,0.727c-0.54,-1.325 -1.26,-1.949 -1.832,0.56c-0.3,1.318 -0.764,3.01 -1.1,4.33c-0.528,-2.086 0.015,-3.661 0.158,-5.714c0.124,-1.786 -0.421,-1.193 -0.661,-0.744c-0.084,-0.704 -0.234,-1.152 -0.414,-1.456c1.619,-1.384 3.097,-0.48 4.89,-2.064c2.025,-1.789 4.781,-2.867 6.821,-5.31c0.633,-0.758 0.371,-4.069 0.105,-5.166c-0.267,-1.097 -0.583,-2.076 -1.012,-2.094c-1.876,-0.085 -3.457,2.294 -5.402,2.331c-1.944,0.037 -3.946,1.341 -5.958,2.202c-2.013,0.86 -2.832,-0.219 -3.075,-6.962c-1.33,-3.543 -1.936,-1.026 -3.073,2.12c-0.533,1.475 -0.596,3.38 -1.315,0.958c-0.72,-2.42 -1.687,-4.283 -2.215,-6.736c-1.356,-6.291 -3.06,-5.484 -4.79,-2.839c-1.731,2.643 -1.662,4.997 -0.992,9.38c0.669,4.385 0.54,5.571 -0.839,6.863c-1.378,1.293 -2.038,2.432 -2.331,6.78c-0.025,0.378 -0.069,0.685 -0.119,0.961c-0.874,-1.106 -2.118,-0.805 -3.354,-0.538c-0.333,-0.288 -0.666,-0.577 -1.016,-0.844c-0.202,-0.322 -0.433,-0.615 -0.694,-0.862c-0.689,-0.552 -1.298,-0.44 -1.879,-0.099c-0.836,-2.549 -1.846,-2.499 -2.669,0.532c-1.799,0.059 -2.195,2.519 -3.096,4.118l-0.019,-0.002c-0.785,0.292 -1.67,0.562 -2.407,0.316c-0.37,-2.214 -1.005,-3.229 -1.839,-2.347c-0.232,0.244 -0.466,0.41 -0.7,0.527c-0.397,-0.105 -0.736,-0.032 -1.035,0.172c-0.419,-0.063 -0.807,-0.27 -1.121,-0.551c-0.723,-0.648 -0.875,-0.934 -0.651,-2.601c0.527,-3.924 0.41,-8.091 0.675,-12.201c0.121,-1.888 0.717,-2.652 1.18,-3.899c0.463,-1.247 0.951,-2.855 0.583,-4.982c-0.368,-2.129 -0.93,-2.204 -1.653,-1.771c-0.723,0.435 -1.78,1.716 -2.422,2.423c-0.642,0.708 -1.133,1.927 -1.604,0.599c-0.47,-1.326 -0.054,-2.431 0.117,-3.701c-0.538,1.019 -0.696,1.759 -1.374,2.674c-0.679,0.914 -1.75,0.206 -2.328,-1.793c-0.016,-0.055 -0.007,-0.114 -0.027,-0.077c-0.136,0.254 -0.233,0.571 -0.329,1.028c-0.548,2.648 -1.156,4.823 -1.79,7.366c-1.135,4.554 -2.178,8.04 -4.092,9.037c-0.61,0.318 -0.99,1.603 -1.162,3.52c-0.17,1.918 -0.283,4.371 -1.073,4.082c-0.791,-0.288 -0.805,-3.38 -0.901,-5.139c-0.097,-1.758 -0.083,-2.934 0.057,-4.372c0.476,-4.897 0.021,-7.074 -1.2,-10.195c-0.616,-1.575 -1.162,-2.151 -1.428,-5.277c-0.267,-3.127 -1.063,-4.879 -2.108,-2.44c-0.534,1.245 -0.685,3.314 -0.636,5.074c0.003,0.109 0.009,0.195 0.015,0.293c-0.019,0.011 -0.04,0.014 -0.059,0.026c-2.446,1.562 -2.856,1.372 -3.667,-6.681c-0.238,-2.362 -0.784,-5.433 -1.782,-4.625c-0.008,-0.107 -0.009,-0.201 -0.019,-0.312c-0.046,-0.52 -0.114,-0.768 -0.434,-1.082c-0.321,-0.313 -0.783,0.494 -1.222,1.193c-0.738,1.178 -1.42,2.183 -2.103,2.715c0.116,-0.246 0.23,-0.491 0.336,-0.738c0.492,-1.145 1.16,-2.6 1.146,-4.702c-0.015,-2.102 -0.21,-2.357 -0.543,-4.563c-0.333,-2.205 -0.265,-6.758 0.147,-8.871c0.41,-2.113 0.693,-2.577 0.75,-4.712c0.016,-0.624 -0.024,-1.197 -0.098,-1.719c1.269,0.459 2.685,0.89 3.267,-3.289c0.365,-2.618 -1.459,-2.794 -2.275,-3.222c-1.388,-0.727 -3.112,-3.661 -4.543,-0.201c-0.554,1.342 -0.843,6.456 -1.76,3.668c-0.409,-1.243 0.758,-4.936 1.446,-6.692c0.689,-1.757 2.184,-7.289 1.088,-11.408c-1.097,-4.119 -2.943,-5.758 -4.378,-2.043c-0.777,2.011 -0.821,11.02 -0.506,11.665c2.029,4.154 1.167,5.554 0.542,8.69c-0.224,-0.211 -0.449,-0.456 -0.676,-0.765c-0.362,-0.493 -0.548,-1.58 -1.057,-0.923c-0.509,0.657 -0.469,1.947 -0.81,4.229c-0.34,2.282 -1.613,5.273 -2.688,3.405c-0.65,-1.128 -1.241,-3.118 -1.72,-5.294c0.769,-1.544 1.46,-3.006 1.451,-6.6c-0,-0.156 -0.006,-0.314 -0.012,-0.471c0.784,-1.304 1.234,-3.464 0.967,-7.566c-0.003,-0.046 -0.009,-0.083 -0.012,-0.129c0.047,-0.004 0.094,-0.002 0.142,-0.007c0.879,-1.763 2.538,-7.501 1.569,-9.566c-1.683,-3.584 -3.149,-3.27 -4.652,-1.1c-1.502,2.17 -1.12,6.657 -2.354,9.21c-0.53,1.098 -1.319,-0.313 -1.373,2.699c0.579,-0.146 1.391,-0.411 1.928,-0.553c0.537,-0.14 0.908,-0.581 1.37,-0.641c0.035,-0.005 0.069,-0.002 0.104,-0.006c-0.018,0.088 -0.038,0.169 -0.054,0.26c-0.501,2.735 -1.143,7.663 -2.44,7.463c-1.299,-0.199 -1.248,0.604 -1.102,3.835c0.145,3.232 -0.602,3.339 -1.265,1.839c-0.662,-1.5 -1.34,-2.995 -2.013,-1.857c-1.298,2.191 -2.033,2.953 -2.954,-0.735c-0.871,3.345 -1.856,6.802 -2.755,9.998c-0.199,0.71 -0.846,1.366 -0.957,1.036c-2.575,-7.757 -1.599,-0.654 -1.499,2.923c0.099,3.577 0.337,2.703 -0.42,3.26c-0.757,0.557 -1.402,-2.775 -1.381,-5.22c0.001,-0.052 -0.047,-0.112 -0.063,-0.076c-2.024,4.483 -2.234,7.512 0.153,11.207c0.255,0.395 0.742,1.946 0.513,3.472c-0.227,1.524 -0.569,0.112 -1.069,-0.095c-2.027,-0.842 -3.151,-3.231 -4.268,4.211c-0.194,1.292 -2.346,-1.17 -2.678,-2.769c-0.12,-0.577 -0.899,-2.394 -0.985,-2.095c-0.082,0.287 0.168,2.425 0.247,3.612c0.225,3.382 0.014,7.559 0.677,10.549c0.092,0.415 -0.349,1.11 -0.428,0.971c-0.819,-1.434 -2.18,-1.238 -2.621,-4.614c-0.44,-3.376 -0.564,-8.674 -0.041,-12.281c1.136,-7.858 2.82,-3.901 4.437,0.43c-0.672,-4.982 -0.923,-8.835 1.058,-10.056c0.189,-0.117 0.442,-1.298 0.436,-1.646c-0.004,-0.186 0.002,-0.254 0.005,-0.273c0.002,-0.007 0.001,-0.01 -0,-0c-0.001,0.004 -0.004,0.01 -0.008,0.014c-1.39,1.485 -2.574,3.731 -3.623,7.04c-0.19,-2.26 -0.831,-4.283 -1.22,-6c-0.389,-1.718 -1.074,-2.532 -1.483,-1.379c-1.912,5.404 -2.586,0.593 -4.492,-1.529c1.139,-4.811 2.1,-7.864 0.95,-13.671c-0.002,0.006 -0.004,0.01 -0.006,0.017c-4.168,0.103 -8.252,1.263 -12.106,5.968c-1.796,2.193 0.292,8.204 -0.692,11.355c-0.016,0.051 -0.028,0.101 -0.043,0.151c-1.439,-1.04 -2.928,-2.504 -4.368,-3.291c-0.838,-0.459 -1.722,0.182 -2.035,2.878c-0.305,2.63 0.366,2.885 1.054,4.567c-0.002,0.004 -0.004,0.006 -0.006,0.008c-0.356,2.201 -0.804,1.068 -1.199,0.014c-1.449,-3.86 -2.91,-5.661 -4.722,-6.408c-1.811,-0.747 -4.466,2.41 -4.805,7.022c-0.338,4.613 -1.576,5.434 -1.949,4.826c-2.154,-3.514 -3.022,1.63 -4.954,0.222c-0.972,-0.708 -0.885,2.181 -0.347,4.228c1.526,5.805 3.929,9.471 5.855,14.256c0.008,0.017 0.016,0.033 0.023,0.051c-0.011,0.019 -0.023,0.033 -0.034,0.054c0.331,1.98 0.838,6.237 -0.244,6.68c-2.258,0.928 -4.193,3.286 -6.2,-1.065c-0.403,-0.874 -0.769,-1.504 -1.17,-0.76c-0.178,0.331 -0.28,0.658 -0.346,1.026c-0.019,-0.064 -0.038,-0.119 -0.055,-0.174c0.089,-0.305 0.183,-0.61 0.244,-0.915c0.718,-3.541 0.223,-7.791 -0.695,-9.68c-0.917,-1.888 -1.269,0.612 -1.73,2.855c-0.462,2.241 -0.813,5.476 -1.925,5.71c-1.111,0.234 -2.23,0.855 -3.411,1.093c-1.809,0.363 -2.753,-2.25 -3.847,-6.347c-0.83,-3.107 -2.365,-3.302 -3.454,-4.91c-1.089,-1.608 -1.482,1.371 -1.274,4.384c0.028,0.415 0.074,0.806 0.208,1.503c0.003,0.013 0.006,0.032 0.009,0.046c-0.484,1.398 -1.193,0.578 -1.833,1.442c-0.125,-0.365 -0.254,-0.745 -0.397,-1.132c-0.5,-1.356 -1.39,-1.348 -1.738,0.901c-0.111,0.716 -0.21,1.325 -0.304,1.852c-1.283,-0.205 -2.37,-2.436 -3.59,-1.747c-0.415,-0.285 -0.847,-0.329 -1.304,-0.015c-0.16,0.111 -0.333,0.544 -0.36,1.025c-0.007,0.129 -0.019,0.24 -0.027,0.365c-1.513,-0.62 -2.264,-3.946 -2.262,4.023c0,0.495 -0.764,2.008 -1.179,2.141c-1.191,0.377 -2.509,0.917 -3.786,1.306c-0.214,-0.391 -0.422,-0.827 -0.617,-1.317c-0.699,-1.752 -1.082,-2.58 -1.824,-4.408c-0.743,-1.828 -1.673,-2.115 -2.4,0.161c-1.207,3.777 -2.212,2.659 -3.313,-0.428c-1.102,-3.086 -2.304,-2.322 -3.369,-0.695c-0.806,1.229 -1.015,3.624 -1.137,5.822c-0.576,-1.313 -1.257,-2.21 -1.442,-1.222c-0.857,4.58 -1.3,1.598 -2.144,1.197c-0.843,-0.402 -3.342,0.391 -3.109,2.61c0.702,6.699 0.164,9.277 -1.14,14.466c0.02,-0.934 0.038,-2.193 0.044,-3.482c0.456,-0.917 0.776,-2.031 0.71,-3.599c-0.239,0.331 -0.477,0.659 -0.715,0.986c-0.011,-0.916 -0.03,-1.74 -0.067,-2.309c-0.116,-1.819 -0.984,-2.142 -1.168,-2.276c-0.184,-0.133 -0.158,1.344 -0.091,1.807c0.202,1.411 0.304,2.765 0.343,4.099c-3.772,4.967 -7.572,8.334 -12.091,0.28c-3.226,2.122 1.631,4.26 -0.008,6.385c-2.401,1.044 -4.803,-2.952 -7.203,0.007c-0.252,0.301 -0.502,0.604 -0.753,0.906c-0.083,1.53 -0.594,2.242 -1.615,1.99c-0.153,-2.513 0.341,-5.333 -2.194,-6.696c-0.826,-0.557 -1.183,-1.468 -1.258,-2.595c0.485,-0.603 0.974,-1.204 1.46,-1.807c0.232,-0.311 0.467,-0.622 0.7,-0.933c-1.671,-3.762 -4.166,-2.547 -6.596,-1.734c-0.318,1.362 0.249,2.367 0.853,3.356c0.323,0.296 0.685,0.48 1.081,0.55c0.027,0.003 0.052,-0.005 0.08,-0.002c0.323,0.798 0.648,1.596 0.971,2.394c-0.001,0.242 -0.003,0.482 -0.005,0.724c-1.06,-1.2 -2.241,-1.088 -3.616,1.102c-1.965,-0.508 -4.211,2.77 -6.049,-0.944c-0.467,-0.945 -1.799,0.41 -1.547,1.468c1.54,6.494 -2.195,4.672 -4.679,4.859c-0.983,-1.006 -1.956,-0.725 -2.928,0.032l-1.529,0.144c-0.235,-0.291 -0.469,-0.58 -0.703,-0.871c-1.794,-2.106 3.936,-4.604 0.109,-5.834c-2.476,-0.796 -2.127,3.964 -3.537,5.772c-0.076,0.095 -0.076,0.282 -0.109,0.426c-2.417,0.746 -4.188,2.138 -3.68,5.814c-0.498,-0.508 -0.994,-1.017 -1.49,-1.526c0.145,-0.988 0.567,-2.329 -0.751,-2.293c-0.974,0.026 -0.745,1.227 -0.61,2.102c-2.823,0.482 -2.195,-2.72 -2.976,-4.421c-0.96,0.195 -1.918,0.391 -2.878,0.586c-1.441,-0.315 -2.88,-0.63 -4.32,-0.945c-2.741,1.637 -5.638,1.213 -8.518,1.016c0.397,-0.625 0.792,-1.247 1.187,-1.871c-0.335,-1.694 1.625,-4.367 -0.769,-5.011c-2.524,-0.68 -0.694,2.433 -1.371,3.407c-0.518,0.742 -1.404,1.076 -2.127,1.591c-0.003,0.001 -0.004,0.002 -0.006,0.003c-0.985,0.042 -1.969,0.084 -2.953,0.126c-0.108,-0.068 -0.185,-0.181 -0.307,-0.229c-0.102,-0.027 -0.207,-0.03 -0.311,-0.048c-0.032,-0.756 -0.063,-1.513 -0.095,-2.269c1.935,-0.72 2.95,-1.751 0.821,-3.846c-0.782,0.985 -1.469,2.026 -1.358,3.551c-1.002,0.636 -2.005,1.272 -3.007,1.908c0.011,0.541 0.022,1.081 0.033,1.623c-0.805,0.314 -1.626,0.563 -2.484,0.648c-0.694,0.105 -1.405,0.146 -1.941,0.844c-0.062,0.114 -0.05,0.257 -0.093,0.379c-0.744,-0.574 -0.885,-1.644 -1.237,-2.542l-1.445,-0.769c0.012,1.263 -0.272,3.114 -1.251,2.734c-3.013,-1.17 -4.697,0.77 -6.55,3.726c-0.083,-0.132 -0.198,-0.206 -0.259,-0.376c-0.387,-1.046 -0.813,-1.743 -1.265,-2.189c-0.128,-1.513 -0.447,-2.76 -0.942,-3.954c-0.378,-0.825 -0.827,-1.533 -1.404,-2.028c-0.025,-0.038 -0.034,-0.072 -0.06,-0.111c-0.031,-0.006 -0.051,0.004 -0.082,-0c-0.36,-0.274 -0.757,-0.487 -1.251,-0.542c0.094,0.295 0.283,0.486 0.473,0.674c-0.904,0.523 -0.799,2.346 -1.651,2.941c-2.036,1.492 -3.415,0.472 -4.376,-1.877c-0.513,-1.251 -0.121,-2.671 -0.303,-3.989c-0.407,-2.913 -1.371,-3.302 -3.543,-1.46c-0.243,0.592 -0.487,1.183 -0.731,1.774c-0.001,2.017 1.021,4.208 -0.495,5.94c-0.241,0.276 -1.101,-0.061 -1.557,-0.381c-1.323,-0.929 -1.206,-2.263 -0.696,-3.864c0.223,-0.694 -0.132,-1.68 -0.225,-2.532c-0.686,0.307 -1.373,0.613 -2.059,0.919c-1.407,1.283 -2.065,3.212 -2.813,5.063c-1.459,-1.301 -2.939,-1.327 -4.446,0.325c-0.937,0.258 -1.875,0.518 -2.813,0.776c-0.995,-1.856 3.697,-5.864 -1.468,-6.144c-0.522,2.377 -1.045,4.754 -1.566,7.132l0.034,0.066c-1.989,0.483 -1.892,1.988 -1.73,3.521c-0.141,0.164 -0.283,0.328 -0.43,0.479c-0.012,0.012 -0.02,0.03 -0.032,0.042c-0.147,-1.253 -0.288,-2.51 -0.533,-3.731c-0.292,-1.44 -1.024,-1.772 -1.69,-0.364c-0.604,1.276 0.113,4.001 -1.799,3.699c-1.696,-0.266 -0.815,-3.202 -1.838,-4.479c1.725,0.089 0.848,-0.345 2.574,-0.239c-0.64,-0.357 0.12,-1.947 -0.928,-2.046c-0.708,-0.067 -0.311,0.374 -1.015,0.268c-1.37,-0.221 -2.753,-0.807 -4.112,0.108c-0.362,0.191 -0.731,0.345 -1.101,0.506c-0.219,-0.656 -0.147,-1.428 0.292,-2.347c-0.189,-1.499 0.283,-3.9 -1.589,-3.675c-1.635,0.195 -0.84,2.342 -0.84,3.714c0.001,1.526 -0.584,2.595 -1.697,3.033c-1.32,0.518 -1.94,-0.551 -2.308,-1.957c-0.397,-1.381 -0.51,-2.694 0.566,-3.721c0.02,-0.33 0.042,-0.66 0.064,-0.992c-0.937,0.012 -1.872,0.024 -2.809,0.035c-0.388,-0.951 -0.496,-2.882 -1.573,-2.142c-0.129,0.09 -0.213,0.29 -0.286,0.512c-0.809,-1.787 -2.133,-2.406 -4.332,-1.045c-1.047,0.648 -2.18,0.232 -3.268,0.345c-1.594,-0.068 -3.149,0.847 -4.763,0.239c-0.312,-0.09 -0.626,-0.164 -0.942,-0.217c-0.32,-0.029 -0.643,-0.049 -0.964,-0.054c-0.575,-0.004 -1.155,-0.021 -1.732,-0.031c-0.663,-1.77 0.527,-4.68 -0.971,-5.938c-2.921,0.212 -2.297,2.234 -1.417,4.387c-1.105,0.896 -2.212,1.79 -3.318,2.685c-0.079,0.046 -0.159,0.058 -0.238,0.107c-0.013,0.005 -0.026,0.009 -0.039,0.012c0.672,-0.924 2.446,-4.868 -0.911,-6.163c-0.693,0.282 -1.388,0.566 -2.084,0.849c-0.658,0.795 -0.498,1.549 -0.246,2.298c-1.022,-1.388 -1.589,-3.199 -2.396,-4.787c-0.043,-0.011 -0.085,-0.031 -0.128,-0.043c-0.031,-0.085 -0.011,-0.157 -0.068,-0.249c-0.483,-2.034 2.488,-4.734 -0.757,-6.236c-0.198,0.278 -0.397,0.556 -0.598,0.834c-1.049,0.654 0.093,3.301 -1.687,3.142c-1.534,-0.138 -0.67,-2.156 -1.252,-3.1c-2.743,-2.874 -1.979,2.17 -3.248,2.627c-0.443,-0.165 -0.883,-0.346 -1.336,-0.482c-0.199,-0.151 -0.421,-0.227 -0.64,-0.312c-0.213,-1.12 -0.404,-2.356 -1.463,-2.318c-1.693,0.061 -0.805,1.93 -0.947,3.096c-0.037,0.3 -0.12,0.592 -0.198,0.887c-0.017,0.02 -0.035,0.043 -0.053,0.062c-0.179,0.211 -0.383,0.378 -0.584,0.548c-0.646,-0.748 -1.098,-1.962 -2.195,-1.625c-0.049,-0.228 -0.068,-0.474 -0.213,-0.654c-0.499,-1.084 -1.161,-2.504 -2.004,-0.673c-0.36,0.783 -0.684,1.265 -0.983,1.519c-0.558,-0.891 -1.005,-1.878 -1.192,-3.089c-0.262,-0.882 -0.752,-1.478 -1.472,-1.764c-0.989,-0.102 -1.973,-0.333 -2.959,-0.516Zm846.075,-77l1653.92,-0l-0,77.011l-0.717,-0.113l-0.527,-0.065l-0.529,-0.05l-0.53,-0.032l-0.531,-0.01l-0.533,0.015l-0.535,0.044l-0.536,0.076l-0.539,0.112l-0.732,-0.037l0.17,0.426l0.082,0.213l0.071,0.219l0.031,0.316l0.018,0.317l0.005,0.317l-0.01,0.318l-4.019,2.291c0.038,-0.913 0.077,-1.825 0.117,-2.76c-0.553,0.346 -1.019,0.638 -1.414,0.885c-0.203,0.113 -0.389,0.215 -0.558,0.31c-0.087,0.042 -0.171,0.082 -0.25,0.12c-0.081,0.034 -0.159,0.065 -0.234,0.096c-0.076,0.026 -0.149,0.049 -0.22,0.073c-0.071,0.016 -0.14,0.033 -0.208,0.049l-0.101,0.016l-0.098,0.009l-0.096,0.003l-0.095,-0.003l-0.094,-0.009l-0.093,-0.016l-0.092,-0.022l-0.093,-0.029l-0.092,-0.035l-0.092,-0.042l-0.187,-0.103c-0.493,-0.362 -1.041,-1.103 -1.911,-2.291c-0.28,4.708 -1.156,4.797 -3.508,1.491c-1.983,-2.786 -4.259,1.095 -6.618,1.188c-2.255,0.09 -4.471,0.332 -6.712,-0.202c-0.09,-0.946 0.232,-1.8 0.83,-2.07c-0.069,-0.014 -0.136,-0.005 -0.204,-0.02c-0.322,-0.133 -0.654,-0.218 -0.993,-0.259c-1.043,-0.351 -2.029,-0.092 -2.997,0.425c-0.214,0.139 -0.455,0.231 -0.699,0.316c-0.911,-0.414 -1.981,-0.305 -2.859,-0.827c-0.822,-0.158 -1.58,0.059 -2.306,0.567c-1.588,2.552 -3.657,2.659 -5.905,1.897c-2.266,-0.301 -4.423,0.738 -6.653,0.839c-0.321,0.052 -0.638,0.128 -0.951,0.233c-0.447,0.276 -0.052,1.074 -0.399,1.51c-0,4.429 -5.025,-1.763 -6.458,-0.362c-2.112,-1.761 -3.868,-4.17 -5.297,-7.154c-0.2,-0.157 -0.416,-0.251 -0.65,-0.284c-0.767,-1.294 -1.902,-0.555 -2.854,-0.824c-1.368,-1.076 -2.311,-2.765 -2.863,-4.485c-1.08,-3.365 -2.197,-2.228 -3.62,-0.548c-0.606,0.718 -1.04,1.623 -1.701,2.263c-0.658,2.469 -1.789,4.375 -3.829,2.158c-2.435,-2.647 -4.79,-1.795 -7.297,-0.701c-0.88,0.547 -1.113,2.394 -2.535,1.897c-2.081,-0.728 -3.519,1.12 -5.139,2.171c-2.346,1.306 -5.002,2.388 -3.283,6.81c0.008,0.004 0.017,0.005 0.026,0.01c-0.107,0.168 -0.209,0.347 -0.362,0.43c-0.094,0.97 -0.448,1.642 -0.957,2.137c-0.395,-0.168 -0.804,-0.296 -1.175,-0.525c-0.827,-0.196 -1.66,-0.161 -2.501,-0.104c-1.055,0.235 -2.007,1.052 -3.132,0.843c-0.318,0.024 -0.592,0.172 -0.813,0.468c-1.03,3.437 -2.682,2.09 -4.314,0.886c-0.254,0.026 -0.508,0.051 -0.763,0.075c-0.241,0.589 -0.482,1.177 -0.724,1.766c-3.103,-0.839 -6.207,-1.675 -9.311,-2.515c-0.068,-0.13 -0.136,-0.26 -0.204,-0.389c-1.757,0.17 -3.102,1.355 -4.345,2.792c-2.4,2.135 -5.174,0.283 -7.693,1.148c-0.393,0.817 -0.787,1.637 -1.18,2.455c-0.386,0.067 -0.772,0.132 -1.159,0.198c-0.484,0.011 -0.966,0.022 -1.45,0.033c-3.324,0.666 -6.649,1.33 -9.973,1.996c-0.14,0.348 -0.28,0.695 -0.42,1.042c-0.209,0.157 -0.426,0.277 -0.625,0.485c-0.708,1.074 -1.91,1.113 -2.694,2.029c-1.469,0.273 -2.937,0.545 -4.406,0.818c-0.563,-0.412 -0.953,-0.046 -1.31,0.468c-1.033,1.506 -1.809,2.632 -2.482,3.447c-2.283,0.985 -4.908,-0.246 -7.22,-3.756c-2.359,-2.524 -4.458,-4.238 -4.432,1.97c0,0.321 -1.211,0.979 -1.823,0.92c-2.258,-0.216 -4.642,1.393 -6.954,1.802c-0.032,-0.103 -0.063,-0.211 -0.095,-0.308c0.051,-2.608 0.159,-5.3 0.128,-7.982c-0.329,0.937 -0.719,0.938 -1.088,1.677c-0.062,0.124 -0.117,0.181 -0.171,0.219c0.121,-1.094 0.129,-2.251 -0.129,-3.311c-0.604,-2.476 -1.302,-1.644 -2.188,0.054c-0.887,1.699 -1.957,2.171 -2.992,0.394c-0.317,-0.542 -0.664,-0.475 -1.033,-0.284c-0.367,0.192 -0.319,-0.329 -0.798,0.737c-0.48,1.066 -1.293,2.916 -2.151,2.969c-2.404,0.152 -4.965,0.631 -7.287,-1.25c-0.769,-0.623 -0.951,-2.381 -1.303,-3.326c-0.362,-0.964 -1.025,0.541 -1.37,0.443c-0.106,-0.03 -0.214,0.02 -0.319,0.092c0.009,-0.306 0.016,-0.606 0.03,-0.928c0.141,-3.318 -1.532,-4.558 -2.432,-3.011c-0.901,1.548 -1.499,2.642 -2.421,3.337c-2.605,1.963 -4.74,2.81 -6.103,9.983c-0.433,0.89 -0.542,2.022 -0.643,3.161c-0.239,0.391 -0.493,-0.166 -0.638,-1.329c-0.804,-6.511 -2.392,-4.836 -4.057,-4.505c-1.665,0.33 -0.314,2.576 -0.441,4.867c-0.033,0.592 -0.108,0.954 -0.204,1.17c-0.649,-0.517 -1.256,-1.143 -1.88,-1.727c-1.802,-2.917 -3.147,-6.127 -5.277,-8.678c-1.168,0.252 -4.25,-3.952 -4.988,-3.116c-0.292,0.333 -0.434,1.21 -0.539,2.12c-0.895,-0.077 -1.789,-0.154 -2.684,-0.231c-1.196,-3.283 -3.058,-4.356 -5.741,-2.761c-1.019,0.606 -2.128,0.299 -3.194,0.433c-0.927,0.528 -1.972,0.686 -2.891,1.246c-0.968,-0.102 -1.872,0.345 -2.767,0.935c-0.041,-0.01 -0.078,-0.028 -0.12,-0.036c-1.723,-0.004 -3.48,-0.472 -5.104,0.678c-0.307,0.063 -0.61,0.04 -0.905,-0.045c-1.586,-1.306 -0.975,-3.9 -2.029,-5.532c-1.177,-0.693 -2.601,-1.805 -3.666,-1.018c-3.516,2.596 -5.672,0.117 -7.85,-2.745c-0.142,-0.103 -0.282,-0.192 -0.42,-0.267c-1.267,-4.215 -2.149,-5.219 -3.821,-6.701c-2.503,-2.216 -4.617,0.119 -6.112,-8.192c-0.165,-0.923 -0.785,-1.931 -1.177,-1.929c-3.091,0.004 -5.429,-5.998 -7.875,-10.411c-3.944,-7.115 -6.901,-4.63 -8.172,7.406c-0.337,-0.031 -0.678,-0.09 -1.019,-0.162c0.012,-1.477 0,-2.987 -0.017,-4.527c-0.018,-1.686 -0.673,-4.116 -1.269,-4.397c-3.242,-1.527 -5.862,4.649 -9.09,0.017c-0.185,-0.266 -0.846,0.79 -1.037,1.529c-1.199,4.661 -2.558,2.603 -4.157,2.111c-4.088,-1.26 -7.712,-7.346 -11.441,-0.51c-2.844,5.214 -5.875,1.803 -8.536,4.741c-2.011,2.221 -2.181,-0.693 -2.154,-4.94c0.026,-4.245 0.444,-6.293 -0.736,-8.482c-1.18,-2.19 -2.787,-2.417 -3.588,1.365c-1.022,4.826 -2.427,2.434 -3.7,4.007c-2.776,3.434 -3.468,13.425 -6.347,15.424c-0.941,0.655 -2.015,-3.365 -2.499,-0.398c-0.152,0.937 -0.31,1.74 -0.472,2.449c-0.376,0.02 -0.745,-0.08 -1.084,-0.417c-0.898,-0.888 -1.805,-1.343 -2.718,-1.544c0.333,-1.935 0.93,-3.304 2.025,-4.268c0.447,-0.392 0.577,-3.247 0.135,-4.836c-0.442,-1.588 -0.86,-2.288 -1.742,-1.631c-2.047,1.525 -3.683,1.662 -6.071,3.392c-0.792,0.574 -2.419,4.82 -3.819,8.022c-0.492,-0.384 -0.649,-1.216 -0.501,-2.467c0.195,-1.65 0.421,-3.345 -1.426,-3.783c-0.33,0.027 -0.642,0.14 -0.936,0.332c-0.615,0.577 -1.269,1.05 -1.956,1.438c-0.265,-0.821 -0.614,-1.24 -1.142,-0.871c-0.477,0.334 -0.839,1.009 -1.138,1.884c-0.069,0.036 -0.144,0.053 -0.213,0.093c-1.329,0.51 -2.61,-0.28 -3.913,-0.25c-2.257,0.051 -4.344,0.583 -4.777,4.084c0.093,0.431 0.259,0.812 0.495,1.146c0.022,0.016 0.044,0.015 0.065,0.031c-0.16,0.195 -0.32,0.389 -0.48,0.584c-2.082,2.04 -3.149,-1.116 -4.766,-1.492c-1.604,-0.374 -3.191,-0.697 -3.976,1.639c-0.287,0.852 -0.13,1.942 -0.176,2.922c2.569,-0.645 2.913,0.717 1.302,2.784c-1.54,1.976 -3.25,1.632 -4.421,-0.903c-0.457,-0.989 -1.452,-2.14 -1.91,-1.436c-2.656,4.075 -5.735,0.162 -8.51,0.983c-0.239,-0.351 -0.478,-0.701 -0.717,-1.052c-0.476,-0.57 -0.952,-1.142 -1.429,-1.713c-0.443,-0.706 -0.828,-1.458 -1.715,-1.338c-4.057,0.548 -7.903,-1.571 -11.928,-1.543c-0.775,0.005 -1.197,-0.903 -1.558,-1.707c0,-0 0.031,-0.076 0.03,-0.076c-1.383,0.944 -2.799,1.674 -4.419,1.068l-0.013,-0.024c0.285,-2.499 -0.475,-4.794 -2.517,-4.091c-2.637,0.909 -4.647,-0.46 -6.877,-1.323c-2.826,-2.044 -5.089,3.759 -7.974,0.904c-0.422,0.061 -0.844,0.123 -1.266,0.184c-0.159,-0.267 -0.333,-0.536 -0.572,-0.812c-1.742,-1.524 -3.539,-1.349 -5.362,-0.245c-0.967,0.253 -1.935,0.508 -2.902,0.761c-0.819,-0.703 -1.884,-0.616 -2.222,0.306c-1.203,3.279 -3.307,2.071 -5.211,1.971c-3.305,0.655 -6.342,-1.264 -9.545,-1.567c-0.037,0.035 -0.077,0.054 -0.114,0.086c-0.686,-0.296 -1.88,0.413 -2.342,-0.325c-0.269,-0.202 -0.537,-0.404 -0.806,-0.606c-0.272,-2.654 -1.325,-4.267 -3.59,-4.267c0.204,4.616 -2.378,5.555 -5.175,6.212c-1.818,1.104 -3.19,0.205 -4.371,-1.547c-1.377,0.51 -1.402,1.837 -1.245,3.273l0,0.002c-0.968,6.321 -3.484,0.65 -5.215,1.063c-1.035,0.243 -2.073,0.471 -3.104,0.729c-0.81,0.202 -2.061,-1.634 -2.352,0.289c-0.248,1.628 1.272,1.221 2.125,1.505c2.478,0.824 3.138,2.528 1.411,5.158c-0.822,1.251 -0.992,2.66 -0.953,4.182c0.274,0.398 0.55,0.797 0.825,1.195c-0.667,3.944 -1.496,7.861 -1.944,11.845c-0.297,2.647 -0.872,3.791 -3.258,3.797c-3.817,0.01 -7.621,-2.129 -11.443,-0.181c-1.577,1.18 -6.869,-1.258 -2.992,4.965c-2.899,1.826 -5.269,-2.134 -8.01,-0.726c-4.11,2.252 -7.964,4.71 -5.951,11.84c0.041,2.025 0.333,4.157 -1.451,5.407c-0.443,-0.213 -0.885,-0.425 -1.328,-0.639l-1.242,-0.412c-1.5,-0.834 -3,-1.668 -4.499,-2.502c-1.248,1.916 -2.766,1.394 -4.296,0.758c-0.663,-0.298 -1.324,-0.597 -1.986,-0.895c-3.517,-2.458 -7.005,-1.161 -10.305,0.533c-4.328,2.223 -7.988,0.091 -11.735,-2.048c-0.664,-0.906 -1.342,-0.868 -2.033,-0.05c-0.68,0.069 -1.459,0.447 -2.025,0.159c-5.158,-2.625 -10.12,-3.1 -15.532,-0.322c-2.328,1.195 -4.871,4.395 -7.964,2.013c-2.483,-0.166 -5.199,0.403 -7.388,-0.694c-2.466,-1.238 -4.357,-3.364 -5.398,1.584c-0.025,0.275 -0.06,0.547 -0.108,0.817c-2.66,1.356 -5.318,2.927 -7.98,0.01c-1.511,-0.281 -2.517,-2.525 -4.299,-1.753c-1.678,3.479 -4.059,-1.41 -5.846,0.769c-0.14,0.047 -0.281,0.092 -0.422,0.138c0.09,-0.677 0.191,-1.354 0.268,-2.034c0.303,-2.647 0.595,-5.332 -0.78,-5.737l0.031,0.313c-1.436,2.235 -2.867,4.506 -4.318,6.639c-0.127,0.187 -0.386,-0.526 -0.585,-0.821c0.395,-2.32 -0.261,-6.104 0.804,-7.256c0.834,-0.903 1.79,-0.684 2.692,-0.963c-0.283,-1.738 -0.567,-3.477 -0.85,-5.215c-0.351,-2.497 -0.946,-3.398 -1.803,-3.008c-0.765,0.347 -1.494,-0.011 -2.046,-1.998c-0.568,1.53 -1.137,3.061 -1.705,4.59c-0.595,-0.724 -0.451,-2.876 -0.778,-4.042c-0.558,-1.989 -1.263,-3.576 -2.134,-2.267c-0.578,0.87 -0.96,2.206 -0.832,4.013c-0.607,0.175 -1.19,0.861 -1.809,0.824c-0.697,-0.042 -1.426,-0.21 -1.767,2.395c-0.295,1.069 -0.528,2.703 -0.896,3.104c-1.276,1.39 -2.537,5.641 -3.953,0.836c1.246,-2.099 2.276,-6.111 1.705,-9.621c-0.559,-3.436 -1.768,0.869 -2.695,1.583c-1.357,1.047 -2.439,1.472 -1.949,-5.233c-0.953,1.4 -1.19,6.032 -2.265,3.966c-0.938,-1.805 -0.351,-4.976 -0.262,-7.598c0.138,-1.012 -0.073,-1.355 -0.318,-1.635c-0.46,-0.048 -0.837,0.81 -0.941,1.945c-0.296,3.194 -1.004,2.097 -1.645,1.911c-1.345,0.607 -2.732,0.582 -3.705,4.545c-0.364,1.481 -0.898,0.539 -1.365,-0.545c-1.373,-3.184 -2.23,-2.94 -3.586,0.702c-0.031,0.242 -0.071,0.458 -0.107,0.683c-1.798,-1.081 -3.595,-2.162 -5.393,-3.245c-2.049,-1.292 -4.021,3.302 -6.072,1.942c-0.038,-0.884 -0.115,-1.812 -0.255,-2.826c-0.484,-2.064 -1.131,-1.688 -1.794,-1.172c-0.016,0.007 -0.028,0.003 -0.044,0.008c-0.031,-0.578 -0.205,-0.829 -0.435,-0.953c-0.015,-0.224 -0.023,-0.468 -0.028,-0.719c-0.014,-0.452 -0.041,-0.917 -0.082,-1.364c-0.045,-0.287 -0.094,-0.52 -0.144,-0.75c1.66,-7.473 5.114,-8.095 6.995,-16.709c-3.419,1.221 -5.361,15.402 -9.076,7.472c-0.024,-0.051 -0.173,0.409 -0.248,0.675c-0.396,1.406 0.185,4.692 -0.744,4.584c-0.135,-0.015 -0.248,-1.918 -0.362,-3.811c0.153,-0.633 0.28,-1.357 0.385,-2.162c-0.178,-0.022 -0.355,-0.066 -0.532,-0.107c-0.003,-0.039 -0.006,-0.083 -0.009,-0.12c-0.01,0.034 -0.021,0.074 -0.032,0.111c-0.434,-0.106 -0.865,-0.263 -1.294,-0.453c-0.051,-0.986 -0.062,-2 -0.564,-1.428c-0.152,0.173 -0.331,0.523 -0.486,0.919c-0.887,-0.468 -1.772,-0.979 -2.668,-1.35c0.111,-0.432 0.217,-0.865 0.341,-1.295c0.484,-1.694 0.763,-3.036 -0.262,-3.53c-0.447,1.822 -0.723,4.591 -1.662,4.126c-0.961,-0.476 -0.423,-3.308 -0.645,-4.978c-0.268,-2.02 -0.759,-3.752 -1.441,-3.117c-0.781,0.726 -0.657,3.507 -0.49,5.205c0.539,5.474 -0.129,5.982 -1.741,6.407c-1.901,0.501 -2.587,-7.238 -4.485,-5.213c-1.201,1.839 -0.949,4.217 -0.133,6.26c0.994,2.486 2.174,4.385 2.334,8.722c-0.657,-0.815 -1.294,-2.084 -1.696,0.912c-0.057,0.424 -0.064,0.936 -0.03,1.472c-0.027,0.014 -0.054,0.018 -0.081,0.035c-0.746,1.056 -1.529,1.916 -2.112,3.832c-1.247,-4.343 -1.929,1.565 -2.913,2.632c-0.608,-0.145 -1.214,-0.147 -1.801,0.009c0.16,-4.055 1.253,-6.118 2.048,-8.921c-1.844,-12.849 -3.115,-0.496 -4.621,1.083c-0.497,0.521 -0.738,4.144 -1.304,2.366c-0.614,-1.928 0.47,-3.047 0.727,-4.659c0.335,-2.108 1.694,-3.487 1.035,-5.853c-0.418,-1.5 -1.837,-1.496 -2.588,-0.51c-1.089,1.431 -0.818,5.063 -0.613,8.231c0.143,2.201 0.675,5.845 -0.095,6.394c-0.821,0.586 -1.945,-1.064 -2.728,-2.719c-0.358,-0.759 -0.678,-3.131 -0.682,-4.751c0.024,-0.19 0.029,-0.369 0.011,-0.537c0.01,-0.175 0.02,-0.347 0.041,-0.486c1.067,-7.023 0.096,-11.303 -1.905,-12.575c-2.079,-1.321 -3.259,3.165 -3.735,9.368c-0.498,-4.001 -1.777,2.721 -2.337,-0.436c0.096,0.041 0.195,0.05 0.298,-0.021c0.988,-0.783 1.587,-3.031 2.202,-5.408c0.387,-1.497 0.934,-2.743 0.514,-4.719c-0.39,-1.836 -0.996,-1.005 -1.526,-0.317c-0.578,0.791 -1.156,1.583 -1.734,2.376c-0.777,1.646 -1.555,3.292 -2.333,4.937c-0.97,4.773 -2.013,9.098 -4.15,6.842c0.33,-1.329 0.66,-2.659 0.902,-3.639c-1.993,-2.544 -3.596,-1.197 -5.038,1.793c-0.911,-0.645 -1.822,-1.29 -2.734,-1.936c-0.009,-0.383 -0.032,-0.762 -0.039,-1.144c-0.005,-0.293 0.358,-1.04 0.462,-0.905c4.076,5.334 3.46,-10.324 5.773,-12.849c0.043,-0.048 0.01,-1.418 -0.023,-1.433c-0.313,-0.148 -0.658,0.094 -0.948,-0.212c-1.953,-2.063 -4.328,0.912 -5.96,-4.937c0.585,-2.756 -0.745,-8.182 1.258,-8.961c1.583,-1.24 0.924,7.438 1.785,5.35c1.407,-3.412 4.024,-4.975 3.78,-11.926c-0.169,-4.829 -1.946,-6.498 -3.701,-5.332c-0.561,0.372 -1.256,-1.259 -1.89,-1.974c0.087,-0.721 0.108,-1.761 0.273,-2.109c0.801,-1.678 2.135,-3.351 1.151,-6.743c-0.882,-3.041 -2.186,-2.057 -3.003,1.779c-0.235,1.88 -0.097,4.618 -1.026,4.869c-0.134,0.036 -0.312,-1.528 -0.469,-2.351c0.012,-1.447 0.024,-2.896 0.035,-4.344c-1.306,-6.223 -3.096,-3.377 -4.162,-0.474c-1.26,3.429 -1.748,5.285 -2.354,-1.067c-0.219,-2.296 -0.999,-2.516 -1.622,-1.702c-0.571,0.747 -1.058,2.126 -1.583,3.227c0.149,0.586 0.258,1.439 0.451,1.719c2.426,3.517 2.621,11.854 0.385,17.083c-0.025,-1.49 -0.051,-2.978 -0.076,-4.468c0.078,-6.543 -2.832,-4.606 -2.995,-10.47c0.585,1.046 1.17,2.091 1.734,3.1c0.325,-3.508 -1.894,-5.215 -0.42,-8.207c2.011,-4.079 1.496,-7.132 -0.049,-10.584c-0.344,0.406 -0.69,0.813 -1.035,1.22c-0.468,-0.306 -0.937,-0.614 -1.405,-0.921c-0.762,-1.555 -0.928,-8.043 -2.489,-2.986l-0.002,-0.002c-0.913,1.154 -1.931,-5.362 -2.782,0.38c-0.069,5.583 -2.563,8.343 -1.752,14.949c-0.012,0.271 -0.032,0.537 -0.058,0.799c-0.533,0.022 -1.065,0.045 -1.597,0.068c-1.392,-3.42 -2.028,-3.488 -3.246,0.375c-0.782,2.482 -0.79,5.35 0.057,7.938c0.417,-0.638 0.76,-2.974 1.277,-0.993c0.116,0.447 -0.273,2.392 -0.501,3.496c-0.436,2.103 -0.927,4.096 -1.394,6.134c-0.386,-1.042 -0.768,-2.951 -1.16,-2.97c-1.273,-0.059 -2.549,0.573 -3.824,0.938c0.128,0.53 0.255,1.061 0.384,1.59c-0.698,-0.277 -1.397,-0.554 -2.095,-0.832c-0.031,0.027 -0.05,0.087 -0.077,0.127c-0.055,-0.103 -0.107,-0.212 -0.163,-0.315c-0.564,-1.508 -1.121,-1.42 -1.675,0.071c-0.601,1.455 -0.712,3.678 -0.888,5.76c-0.198,2.335 -0.161,4.927 -1.103,6.024c-1.067,1.242 -1.121,-2.5 -1.764,-3.261c-0.236,-0.43 -0.475,-0.835 -0.754,-0.898c-0.827,-0.16 -1.704,-0.819 -2.192,2.269c-0.107,0.432 -0.216,0.865 -0.324,1.298c1.235,3.532 0.784,7.245 0.12,10.981c-0.797,-1.575 -1.518,-2.339 -1.683,1.805c-0.199,5.011 -0.948,3.24 -1.814,0.95c0.836,3.556 -1.395,8.89 0.894,10.779c0.564,1.08 0.652,2.574 0.385,4.379c-1.464,1.923 -2.443,5.096 -2.668,10.227c-0.415,2.417 0.62,2.716 0.679,4.442c-1.271,1.73 -2.503,3.186 -3.313,-5.22c-0.004,1.748 -0.005,2.904 -0.007,3.761c-0.813,-0.424 -1.419,-0.385 -1.9,-0.067c-0.819,-3.314 -1.499,-7.059 -2.874,-8.548c-0.351,-0.312 -0.7,-0.624 -1.051,-0.937c-1.445,-2.695 -2.861,-6.162 -4.566,-1.642c-0.226,0.77 -0.452,1.541 -0.676,2.312c-0.508,-3.247 -1.016,-6.494 -1.523,-9.742c-0.806,-6.093 -0.659,-4.287 -1.544,-3.573c-3.046,2.455 -0.617,8.713 -1.133,12.729c0.487,3.367 0.975,6.734 1.491,10.303c0.755,-2.51 0.577,-5.007 0.265,-7.646c-0.157,-1.329 0.068,-4.072 0.44,-2.322c0.912,4.289 3.138,7.425 1.846,14.567c-0.858,0.448 -1.47,1.915 -2.004,3.706c-1.318,0.447 -4.283,2.899 -4.076,-2.563c0.022,-0.559 -4.351,-0.294 -6.571,0.931l0.023,0.036c-2.779,0.475 -6.303,5.379 -8.088,0.245c-1.386,-3.986 -3.163,-4.266 -5.632,-4.675c-0.067,-0.14 -0.134,-0.279 -0.202,-0.418c-3.516,0.424 -3.628,-4.087 -5.477,-6.085c-2.095,-2.263 -3.893,-4.955 -6.863,-2.016c-0.001,0.001 -0.003,-0 -0.003,0.001c-0.207,0.287 -0.415,0.574 -0.623,0.863c-4.699,-0.276 -8.958,-5.247 -13.95,-2.745c-0.324,-0.541 -0.701,-1.115 -1.181,-1.758c-1.018,-1.437 -2.503,0.36 -3.561,-0.803c-0.286,-0.236 -0.572,-0.473 -0.859,-0.71c-1.87,-1.404 -3.947,-0.913 -5.952,-1.079c0.76,-3.128 -1.333,-3.956 -2.758,-5.321c-4.879,0.354 -9.615,-0.942 -14.373,-1.964c-1.881,-1.757 -2.817,0.004 -3.836,1.449c-0.909,-1.379 -1.819,-2.758 -2.727,-4.138c-2.906,-0.543 -5.999,0.447 -8.711,-1.685l-0.211,0.016l-0.197,-0.1c-1.89,0.071 -0.725,3.387 -2.442,3.643c-1.231,-0.102 -2.354,0.131 -3.096,1.564c-0.816,-1.207 -1.633,-2.411 -2.449,-3.617c-2.826,-2.772 -6.184,-3.329 -9.596,-3.674c-0.002,-0 -0.004,-0.001 -0.006,-0.001c-0.991,-0.688 -1.982,-1.375 -2.973,-2.062c-0.183,-0.582 -0.371,-1.148 -0.574,-1.66c-0.142,-0.262 -0.216,-0.409 -0.238,-0.458c-0.101,-0.183 -0.205,-0.356 -0.312,-0.514c-0.091,-0.074 -0.164,-0.137 -0.209,-0.182c-0.02,-0.015 -0.042,-0.021 -0.063,-0.035c-0.174,-0.014 -0.349,0.014 -0.522,0.073c-0.109,0.092 -0.218,0.158 -0.325,0.277c-0.07,0.077 -0.137,0.166 -0.205,0.252c-0.069,0.126 -0.129,0.286 -0.197,0.414c-0.258,-0.179 -0.517,-0.358 -0.774,-0.537c-2.889,-3.818 -6.911,-2.369 -10.37,-3.535c-2.253,-0.942 -4.473,-1.973 -6.837,-0.302c-0.792,0.56 -1.63,-0.132 -2.382,-0.612c-0.024,-0.01 -0.048,0.003 -0.07,-0.005l0.02,-2.904c-0.211,-0.315 -0.423,-0.63 -0.635,-0.945c-1.164,-2.703 -2.419,-5.118 -5.23,-2.623c-0.281,0.241 -0.564,0.482 -0.847,0.724l0.267,0.499c-0.771,0.82 -1.542,1.64 -2.313,2.462c-0.456,0.481 -0.673,0.977 -0.764,1.483c-0.155,-0.574 -0.361,-1.103 -0.79,-1.45c-0.687,-0.925 -1.373,-1.85 -2.059,-2.775c-0.023,-0.29 -0.053,-0.58 -0.09,-0.868c0.034,-0.631 0.066,-1.262 0.1,-1.893c-0.525,-1.208 0.037,-4.597 -2.396,-2.029c-1.433,1.514 -2.673,0.166 -4.001,-0.04c-0.291,-0.498 -0.583,-0.994 -0.875,-1.493c-2.347,-1.559 -4.697,-3.118 -7.046,-4.677c-2.118,-2.301 -5.678,-2.168 -6.708,-6.301c-0.237,-0.311 -0.472,-0.62 -0.706,-0.931c-1.549,1.216 -2.927,-3.555 -4.537,-0.206c0.039,0.173 0.105,0.334 0.151,0.503c-1.186,1.119 -2.372,2.237 -3.557,3.355c-0.1,-0.619 -0.526,-1.409 -1.607,-2.663c-0.728,-0.267 -1.311,-1.563 -2.039,-1.829c-0.518,-0.189 -2.086,1.579 -2.603,1.439c-0.66,-0.177 -0.271,-2.239 -0.929,-2.26c-1.469,-0.048 -2.933,0.398 -4.387,1.805c-0.226,0.274 -0.453,0.548 -0.68,0.82c-0.889,0.727 -2.141,0.926 -2.386,2.586c-1.082,1.37 -1.877,2.713 -2.594,4.009c-0.499,0.9 -2.603,0.763 -3.102,1.61c-0.784,1.333 -0.017,3.607 -1.263,4.771c-0.996,-0.141 -1.728,0.171 -1.908,1.45c-0.104,0.009 -0.212,0.063 -0.323,0.212c-3.03,0.88 -3.067,-2.233 -3.763,-4.468c-0.4,0.282 -0.799,0.563 -1.201,0.844c-0.815,0.762 -1.574,0.637 -2.283,-0.235c-3.311,-1.842 -1.979,0.946 -1.676,2.676c0.386,2.192 1.663,4.961 -1.727,4.618c-0.034,-0.267 -0.107,-0.518 -0.265,-0.741c-1.225,-0.885 -2.453,-1.771 -3.678,-2.656c-1.425,0.065 -2.855,0.058 -4.27,0.252c-0.349,0.047 -0.835,0.703 -0.901,1.16c-0.054,0.383 0.507,1.314 0.637,1.269c3.62,-1.243 2.341,2.848 3.189,4.589c0.969,1.485 1.938,2.971 2.907,4.457c0.072,-0.011 0.144,-0.016 0.215,-0.026c-0.002,0.523 -3.228,-0.523 -2.566,0.241c-0.059,2.607 0.468,0.144 -1.994,1.043c-2.139,0.779 -1.444,2.514 -0.819,4.19c-1.267,0.334 -3.182,2.842 -3.679,0.505c-1.297,-6.073 -2.685,-0.817 -3.319,-0.064c-1.971,2.335 -3.657,5.21 -6.576,5.519c-2.504,0.266 -4.318,0.769 -5.499,1.655c-1.181,0.885 1.794,3.471 1.813,5.272c0.01,0.961 -3.344,-2.017 -3.016,-0.731c0.259,1.016 -2.186,2.554 -1.74,3.799c0.811,2.268 -1.099,1.495 -2.321,1.461c-1.518,-0.042 0.503,3.074 -1.008,2.652c-0.138,-1.181 -0.852,-1.641 -1.575,-2.223c-0.231,-0.187 -0.462,-0.341 -0.694,-0.514c-0.888,-1.553 -4.44,-4.238 -3.829,-5.735c0.793,-1.94 2.43,-0.859 3.529,-0.362c2.025,0.914 2.992,0.488 2.853,-2.385c-1.422,0.112 -3.275,1.959 -3.806,-1.503c0.209,-0.438 0.425,-0.691 0.643,-0.856c-0.01,-0.008 -0.02,-0.016 -0.031,-0.022c-0.615,-0.216 -1.238,-0.164 -1.863,-0.083c-0.227,0.006 -0.446,-0.039 -0.66,-0.132c-2.022,-1.42 -3.774,-4.427 -6.493,-1.746c-0.25,0.288 -0.501,0.576 -0.753,0.865c-0.174,0.264 -0.273,0.503 -0.34,0.732c-0.841,1.834 -1.655,3.694 -3.313,4.653c0.118,0.018 0.238,0.038 0.355,0.056c-0.087,0.076 -0.181,0.148 -0.266,0.225c-0.988,2.109 -0.438,3.342 -2.042,4.752c-0.337,-0.318 -0.7,-0.568 -1.128,-0.627c0.074,-0.701 0.051,-1.333 -0.54,-1.394c-0.427,-0.044 -0.878,0.288 -1.334,0.707c-0.308,-0.178 -0.62,-0.338 -0.9,-0.606c-0.314,-0.202 -0.651,-0.342 -1.009,-0.379c-0.769,0.093 -1.492,0.455 -2.211,0.836c-1.173,-0.287 -2.379,-0.129 -3.619,0.475c-0.215,-0.102 -0.431,-0.202 -0.646,-0.3c-1.843,-1.099 -3.409,-5.41 -5.745,-0.785l-0.578,0.816c-0.3,-0.139 -0.603,-0.157 -0.915,0.072c-1.427,0.218 -2.855,0.435 -4.284,0.654c-0.591,-2.112 -1.08,-4.281 -1.812,-6.312c-0.423,-1.174 -1.755,-2.812 -2.201,-0.677c-0.815,3.912 -2.772,2.79 -4.683,2.593l-0.011,-0.02c-1.251,-0.921 -2.195,-0.491 -2.892,1.037c-0.026,0.283 -0.054,0.566 -0.086,0.849c-2.356,0.567 -3.33,-3.505 -5.752,-2.719c-1.234,-3.563 -3.356,-2.627 -5.429,-1.928c0.002,-0.109 0.017,-0.203 0.015,-0.315c-1.938,-3.06 -4.383,-1.51 -6.698,-1.176c-0.33,0.067 -0.641,0.19 -0.935,0.384c-0.26,0.233 -0.518,0.458 -0.776,0.688c-0.266,0.201 -0.515,0.429 -0.742,0.691c-0.798,0.894 -1.169,2.369 -2.344,2.746c-1.215,0.77 -2.736,0.739 -3.672,2.268c-1.198,1.957 -2.94,2.553 -4.761,2.933c-0.459,-0.022 -0.918,-0.044 -1.377,-0.067c-0.19,-0.375 -0.453,-0.491 -0.788,-0.345c-2.028,-2.17 -4.844,0.957 -6.578,-1.199c-1.905,-2.366 -3.687,-2.209 -5.789,-1.143c-4.428,-0.419 -8.864,-0.91 -12.974,1.993c-1.941,-5.465 -6.142,-5.501 -9.925,-6.541c-0.066,-0.26 -0.145,-0.514 -0.233,-0.764c-2.151,0.036 -4.301,0.073 -6.453,0.109c-0.493,0.24 -0.987,0.482 -1.481,0.724l0.012,0.015c-1.456,-1.249 -2.599,-0.373 -3.692,0.841c-1.586,0.148 -2.957,0.943 -4.169,2.216c-3.044,2.85 -6.281,0.412 -9.422,0.544c-3.277,-2.996 -6.819,-0.526 -10.227,-0.775c-1.175,1.876 -4.072,1.77 -3.828,5.276c-0.611,-0.025 -1.218,-0.047 -1.829,-0.071c-0.016,-0.246 -0.039,-0.492 -0.065,-0.737c-0.277,-0.289 -0.554,-0.579 -0.83,-0.868c-2.051,-0.889 -3.251,-3.304 -5.12,-4.517c-3.206,0.007 -6.383,-0.199 -9.352,-1.967c-1.43,-0.362 -2.859,-0.724 -4.289,-1.086c0.004,-0.223 0.009,-0.445 0.014,-0.669c-1.407,-0.334 -3.402,-1.579 -4.118,-0.846c-3.179,3.259 -7.005,2.324 -10.503,3.352c-1.563,0.815 -2.584,-0.198 -3.478,-1.639c-4.064,0.812 -8.088,0.51 -12.143,-0.326c-1.199,-0.248 -2.629,0.305 -3.193,2.19l0.013,-0.026c-0.097,2.958 -3.366,3.974 -2.829,7.32c-0.533,1.812 -1.065,3.625 -1.598,5.437c-0.432,0.948 -0.865,1.897 -1.297,2.846c0.043,0.276 0.08,0.554 0.108,0.833c0.003,-0.003 0.004,-0.008 0.006,-0.011c-0.002,0.004 -0.003,0.007 -0.004,0.011c-2.988,5.233 -6.984,4.072 -11.005,2.753c-0.142,-3.238 -1.761,-5.305 -3.936,-3.773c-4.469,3.149 -9.267,3.868 -14.132,4.655l-0.002,0.011c-0.58,-0.308 -1.127,-0.504 -1.588,-0.468c-0.437,-0.129 -0.874,-0.257 -1.311,-0.386c-0.731,0.012 -1.459,0.023 -2.19,0.036c-0.14,-0.018 -0.28,-0.034 -0.419,-0.051c0.094,-0.251 0.224,-0.484 0.241,-0.775c-0.261,-1.385 -0.649,-2.616 -2.002,-2.725c-1.202,-0.093 -2.405,-0.186 -3.608,-0.28c-1.186,-1.691 -2.47,-3.212 -4.241,-3.888c-2.407,-0.754 -5.185,-0.454 -6.702,-3.756c-0.299,-0.276 -0.614,-0.5 -0.949,-0.655c0.177,-1.045 0.394,-1.909 0.634,-2.331c2.118,-3.731 0.303,-4.055 -0.324,-5.526c-0.545,-0.765 -1.608,0.993 -1.593,-2.226c0.013,-2.89 1.037,-2.528 1.701,-3.375c0.647,-0.822 1.716,1.996 1.959,-2.174c-1.284,-0.317 -2.569,-0.634 -3.853,-0.951c-0.926,-1.816 -1.852,-3.632 -2.778,-5.448c-0.814,0.87 -1.619,0.544 -2.436,-0.054c-1.642,-1.203 -2.306,-0.003 -2.951,5.189c0.01,0.543 0.076,1.094 0.159,1.641l-0.014,0.046c-0.767,4.26 -1.692,8.32 -2.129,12.995c-0.229,0.09 -0.459,0.165 -0.694,0.2c-0.087,0.012 -0.173,0.031 -0.259,0.045c-0.537,-0.258 -0.775,-1.049 -0.306,-3.104c-0.193,-0.019 -0.379,-0.071 -0.56,-0.157c-1.85,0.954 -3.999,-0.874 -5.754,0.981c-0.306,0.539 -0.612,1.079 -0.918,1.619c-0.053,-0.01 -0.093,-0.023 -0.143,-0.035c0.122,-1.161 0.139,-2.402 -0.078,-3.767c0.141,-0.302 0.248,-0.595 0.297,-0.876c1.148,-2.144 2.464,-3.102 3.53,-7.265c1.322,-5.158 -1.46,-7.312 -0.01,-10.293c0.107,-1.148 0.215,-2.296 0.322,-3.442c1.377,-2.017 3.626,2.404 4.188,-5.633c-1.175,-3.212 -2.352,-6.426 -3.527,-9.639c0.019,3.782 -1.762,0.614 -1.73,4.447c-2.086,-1.886 -4.174,-3.834 -5.928,2.403l-0.699,0.003c0.11,-1.821 0.22,-3.641 0.33,-5.462c0.682,-1.39 1.798,-0.852 1.993,-4.308c0.032,-0.558 -0.228,-1.705 -0.422,-1.901c-4.491,-4.541 -4.823,17.845 -13.532,-0.449c-0.294,0.107 -0.607,1.451 -0.795,2.437c-1.618,8.501 2.115,7.09 2.306,12.275c0.359,1.818 0.717,3.635 1.076,5.453c-0.113,1.838 -0.225,3.676 -0.337,5.513c-0.505,3.141 -1.145,3.617 -1.992,1.14c-0.994,-2.907 -1.828,-1.927 -2.539,1.237l0.601,7.232c-0.489,-0.328 -0.997,-0.306 -1.485,-0.647c0.218,-3.649 -0.783,-5.756 -1.905,-7.121c-1.413,-1.718 -1.064,-4.873 -0.897,-7.741c0.075,-1.312 1.298,-1.529 0.778,-3.808c-0.301,-1.316 -1.119,-1.995 -1.704,-1.996c-0.799,-0.001 -0.83,2.624 -1.009,4.475c-0.357,3.716 -0.315,8.329 -2.064,8.784c-1.045,-1.045 -1.776,-2.311 -1.076,-6.531c0.408,-2.463 -0.361,-3.944 -0.949,-5.12c-0.74,-1.48 -1.186,-0.212 -1.504,1.874l0.023,6.485c-0.025,-5.081 -1.352,-5.949 -2.471,-7.488c-0.809,-1.6 -2.404,-1.492 -2.126,-5.588c0.191,-2.805 0.969,-3.134 1.778,-3.178c0.045,0.387 0.083,0.804 0.105,1.283c0.504,3.406 1.394,5.055 2.528,4.388c0.986,-0.582 2.01,-2.442 2.122,-5.658c0.113,-3.276 -0.336,-6.692 -1.2,-9.104c-0.553,-1.542 -4.018,-6.384 -4.766,-7.504c-0.997,-1.495 -2.1,-0.679 -3.08,-1.989c-1.859,0.795 -3.72,1.59 -5.579,2.385c0.877,3.425 2.226,2.045 3.321,3.246c0.598,0.655 1.257,1.286 1.434,3.42c0.206,2.499 -0.485,3.32 -1.014,4.337c-0.364,0.539 -0.78,0.455 -1.145,1.147c-2.212,4.188 -3.601,3.407 -5.114,-2.814c-0.295,-1.216 -0.619,-2.157 -1.14,-2.072c-0.567,-0.288 -1.118,-0.365 -1.573,0.895c-0.075,-1.053 -0.278,-1.899 -0.693,-2.353c-0.474,-0.518 -0.996,-0.214 -1.24,1.116c-0.995,5.423 -2.678,4.022 -3.825,2.405c-1.96,-2.766 -3.134,-0.057 -4.39,3.593c-0.101,0.473 -0.281,1.132 -0.393,0.929c-2.095,-3.808 -4.47,-3.534 -6.743,-4.754c-0.539,-0.289 -1.006,-0.316 -1.515,0.361c-2.118,2.812 -4.199,5.244 -6.638,4.005c-2.977,-1.51 -3.453,-0.025 -3.419,7.805c-0.83,-0.351 -1.66,-3.215 -2.436,-1.064c-0.796,2.207 -1.868,3.26 -2.55,5.421c-1.322,4.187 -2.569,3.143 -3.966,1.266c-0.641,-0.859 -1.242,-2.003 -1.915,-2.628c-1.189,-1.108 -1.682,-2.524 -0.637,-6.274c1.064,-3.823 0.746,-6.277 -0.787,-8.053c-0.838,-0.97 -1.76,-1.393 -2.643,-3.537c0.034,-0.039 0.065,-0.058 0.098,-0.096c-0.66,-0.574 -1.319,-1.151 -1.984,-1.539c-1.111,0.076 -2.22,0.268 -3.332,0.238c-0.447,-0.011 -0.834,-0.422 -1.155,-1.087c-0.254,0.313 -0.508,0.625 -0.762,0.937c0.545,3.36 1.664,2.693 2.557,3.608c1.442,1.479 4.325,2.98 4.072,4.423c-0.974,5.575 -3.008,2.61 -4.678,1.889c-1.142,-0.493 -2.61,-1.872 -2.774,3.408c-0.127,4.109 -0.722,4.436 -1.713,5.154c-2.355,1.707 -5.014,2.891 -6.334,9.843c-0.719,3.787 -1.364,5.974 -2.643,6.593c-3.383,1.636 -6.805,12.427 -10.144,-0.405c-0.097,-0.373 -0.456,-0.227 -0.679,-0.09c-1.755,1.09 -3.487,1.339 -5.191,0.904c0.019,-0.666 -0.184,-1.176 -0.693,-1.474c-1.185,-1.773 -2.503,-1.668 -3.861,-1.314c-0.814,-0.784 -1.621,-1.699 -2.417,-2.746c-2.743,-3.605 -5.676,-7.459 -7.792,-13.675c-3.081,-9.052 -6.984,-13.311 -10.285,-20.816c-0.229,-0.52 -1.022,0.115 -1.201,0.957c-0.395,1.847 0.238,2.759 0.627,3.824c1.412,3.878 2.868,7.626 4.189,11.792c0.827,2.606 0.634,4.986 -0.627,5.789c-0.706,-1.81 -1.41,-3.619 -2.116,-5.429c-0.954,-2.902 -1.964,-1.983 -3.183,-1.567c-5.066,1.731 -10.113,10.269 -15.273,1.062c-0.901,-1.61 -1.948,-2.885 -2.961,-0.548c-2.108,4.859 -4.264,9.541 -6.324,14.584c-0.065,-0.171 -0.13,-0.343 -0.188,-0.551c-0.02,-0.178 -0.022,-0.357 -0.003,-0.536c-0.673,-0.056 -1.347,-0.11 -2.019,-0.165c-2.404,-1.269 -4.807,-2.538 -7.212,-3.808c-0.725,-1.713 -2.18,-0.176 -2.874,-0.872c-1.604,-1.604 -5.392,2.145 -5.262,-3.429c-0.764,3.526 -4.219,-5.024 -4.309,1.521c-0.836,0.42 -1.671,0.839 -2.507,1.259c-0.142,2.438 0.158,4.467 2.63,4.471c0.178,0.111 0.365,0.17 0.564,0.178c-0.03,0.274 -0.087,0.54 -0.176,0.795c-0.002,1.085 -0.291,2.12 -0.411,3.182c-0.203,0.028 -0.405,0.135 -0.599,0.385c-0.472,0.892 -0.975,1.521 -1.499,1.964c-0.52,-1.185 -1.475,-0.327 -2.166,-0.262c-0.682,0.063 -1.361,0.553 -2.041,0.852c-1.049,-0.334 -2.098,-0.669 -3.147,-1.003c-0.949,-3.122 -2.19,-4.12 -3.425,-5.695c-1.425,-1.815 -3.747,1.859 -4.29,-6.065c-0.652,-9.513 -2.302,-13.137 -5.279,-8.688c-2.282,-7.583 -4.562,-15.169 -8.005,-20.227c1.795,8.49 1.795,8.49 -1.98,28.891c-0.199,-7.292 -1.694,-6.917 -3.296,-5.907c-0.001,0.004 -0.002,0.007 -0.003,0.011c-1.351,-3.474 -2.522,-7.621 -4.383,-8.847c-1.294,-0.852 -2.29,-3.001 -2.125,-8.351c0.096,-3.118 -0.212,-6.411 -0.436,-9.557c-0.224,-3.143 -0.869,-5.099 -1.942,-5.374c-1.137,-0.292 -1.4,2.74 -1.867,4.924c-0.633,2.961 0.16,4.693 0.638,6.654c0.851,3.499 2.062,6.326 2.275,12.925c-1.594,-6.355 -3.891,-11.387 -3.938,-16.619c-0.079,-8.793 -1.215,-12.583 -3.432,-11.562c-2.211,1.016 -3.867,-3.183 -5.856,-3.213c-0.092,-0.001 -0.272,0.543 -0.265,0.595c0.941,5.815 -0.842,10.176 -1.158,15.295c-0.001,0.005 -0.002,0.01 -0.003,0.015c-0.544,1.84 -1.3,2.644 -2.075,2.847c-0.397,0.103 -0.813,-0.094 -1.199,-0.373c-0.161,-0.117 -0.322,-0.283 -0.48,-0.467c-0.145,-1.772 -0.357,-3.588 -0.593,-5.427c1.239,0.83 1.988,7.966 2.586,4.689c0.732,-4.01 0.288,-10.466 0.068,-15.747c-0.106,-2.542 -1.098,-1.317 -1.662,-0.895c-1.416,1.06 -1.262,4.531 -0.923,8.049c-2.38,-1.737 -4.678,-2.696 -6.778,-5.261c-0.988,-1.208 -1.966,-4.875 -2.921,-2.606c-1.192,2.832 0.565,4.425 0.764,6.911c0.215,2.676 0.556,5.259 0.107,7.932c-0.058,0.346 -0.563,0.428 -0.581,0.285c-0.207,-1.647 -0.594,-3.527 -0.488,-5.031c0.792,-11.175 -2.947,-4.482 -3.875,-9.749c-0.501,-2.841 -0.128,4.173 -1.125,3.053c-0.355,-1.449 -0.71,-2.898 -1.066,-4.346c-4.002,-0.191 -7.937,-0.971 -11.774,-5.657c-0.429,-0.524 -3.351,-13.953 -3.643,1.899c-1.122,-2.163 -1.132,-8.313 -2.467,-7.634c-4.602,2.343 -8.995,-5.245 -13.564,-2.32c-0.806,0.515 -1.889,-0.715 -2.641,-0.201c-0.652,-1.722 -1.212,-2.773 -1.92,-3.107Zm126.817,64.91c-0,0 -0.056,0.328 -0.056,0.329c-0.014,-0.003 -0.028,-0.002 -0.042,-0.005c0.032,-0.108 0.066,-0.215 0.098,-0.324Zm297.574,22.633c-0,0 -0.022,0.439 -0.022,0.44c-0.042,-0.005 -0.085,-0.011 -0.128,-0.016c0.042,-0.146 0.14,-0.261 0.15,-0.424Zm511.594,0.588c0.001,0.002 0.009,0.017 0.009,0.017c-0,0.001 -0.001,0.003 -0.002,0.005c-0.002,-0.007 -0.005,-0.014 -0.007,-0.022Zm-67.146,17.615c-0.043,-0.133 -0.092,-0.257 -0.13,-0.399l0.131,-0.206c-0,0.222 -0,0.422 -0.001,0.605Zm-792.227,-44.621c0.404,-2.464 1.286,-2.159 1.8,-3.381c-0.401,1.733 -0.878,3.258 -1.8,3.381Zm808.234,19.292c-0.002,-0.002 -0.003,-0.006 -0.004,-0.008c0.005,-0.028 0.009,-0.049 0.014,-0.077c0.03,0.045 0.061,0.087 0.091,0.136c-0.034,-0.003 -0.068,-0.016 -0.101,-0.051Zm-1413.62,11.54c-0.354,-0.857 -0.734,-1.629 -1.124,-2.265c0.018,-0.03 0.036,-0.051 0.053,-0.083c0.068,0.12 0.137,0.232 0.209,0.3c0.392,0.377 0.793,1.133 1.152,2.029c-0.097,0.007 -0.194,0.012 -0.29,0.019Zm-108.251,9.986c-0.007,0.004 -0.015,0.01 -0.023,0.012c-0.369,0.129 -0.738,0.175 -1.103,0.398c-0.05,-0.046 -0.1,-0.077 -0.15,-0.133c-1.113,-1.242 0.028,-2.43 0.312,-3.653c0.243,-1.051 0.848,-1.831 1.465,-2.679c-0.078,1.957 -0.274,3.921 -0.526,6.003c0.009,0.02 0.017,0.034 0.025,0.052Zm643.256,-10.46c0.163,-1.298 0.237,-2.605 0.014,-4.068c0.189,0.651 0.45,1.185 0.771,1.625c0.1,0.049 0.204,0.126 0.309,0.21c0.05,0.915 0.104,1.725 0.166,2.434c-0.413,-0.86 -0.834,-0.798 -1.26,-0.201Zm897.004,-50.304c-0.006,-0.242 0,-0.499 0.01,-0.761c0.022,0.018 0.045,0.03 0.069,0.039c-0.035,0.248 -0.062,0.488 -0.079,0.722Zm-897.229,45.037c-0.183,-0.719 -0.187,-1.694 -0.048,-2.569c-0.065,1.004 -0.042,1.867 0.057,2.61c-0.004,-0.015 -0.006,-0.027 -0.009,-0.041Zm38.705,-1.369c0.18,-0.215 0.36,-0.561 0.541,-1.016c0.611,-1.539 1.321,-2.359 2.248,-3.416c-0.817,3.059 -1.849,4.533 -2.789,4.432Zm-6.558,10.292c0.059,-0.044 0.115,-0.092 0.181,-0.119c0.011,-0.004 0.02,-0 0.031,-0.004c-0.073,0.034 -0.145,0.075 -0.212,0.123Zm-18.5,-1.114c0.402,-0.466 0.801,-0.957 1.19,-1.522c-0.332,1.103 -0.695,1.917 -1.19,1.522Zm-36.063,7.444c-0.086,0.445 -0.145,0.932 -0.201,1.425c-0.053,-1.275 -0.393,-2.831 0.137,-3.525c0.285,-0.374 0.6,-0.629 0.9,-0.509c-0.313,0.365 -0.589,1.311 -0.836,2.609Zm38.379,7.033c-0.232,0.143 -0.429,0.36 -0.599,0.638c0.066,-0.363 0.131,-0.726 0.201,-1.105c0.514,-2.778 1.554,-4.136 2.055,-6.821c0.456,4.733 0.077,6.224 -1.657,7.288Z"/></svg>